%FSLAX45Y45*%
G04 Gerber Fmt 4.5, Leading zero omitted, Abs format (unit mm)*
G04 Created by KiCad (PCBNEW (6.0.0)) date 2022-08-31 12:15:53*
%MOMM*%
%LPD*%
G01*
G04 APERTURE LIST*
%TA.AperFunction,Profile*%
%ADD10C,0.200000*%
%TD*%
%ADD11C,0.200000*%
%ADD12C,0.020000*%
%ADD13C,0.040000*%
%ADD14C,0.060000*%
%ADD15C,0.080000*%
%ADD16C,0.095000*%
%ADD17C,0.100000*%
%ADD18C,0.140000*%
%ADD19C,0.320000*%
G04 APERTURE END LIST*
D10*
X12169264Y-12936220D02*
G75*
G03*
X11960860Y-12941300I-104264J7D01*
G01*
X11960860Y-12941300D02*
X11963275Y-13997847D01*
X9912340Y-5105400D02*
X19912340Y-5105400D01*
X19912340Y-5105400D02*
X19912340Y-15105400D01*
X19912340Y-15105400D02*
X9912340Y-15105400D01*
X9912340Y-15105400D02*
X9912340Y-5105400D01*
X11963275Y-13997847D02*
G75*
G03*
X12171679Y-13992767I104264J-7D01*
G01*
X12169264Y-12933680D02*
X12171679Y-13995400D01*
D11*
D12*
X11079640Y-11676540D02*
X11099640Y-11696540D01*
X11099640Y-11676540D02*
X11079640Y-11696540D01*
X11079640Y-11884820D02*
X11099640Y-11904820D01*
X11099640Y-11884820D02*
X11079640Y-11904820D01*
X11079640Y-12016900D02*
X11099640Y-12036900D01*
X11099640Y-12016900D02*
X11079640Y-12036900D01*
X11079640Y-12123580D02*
X11099640Y-12143580D01*
X11099640Y-12123580D02*
X11079640Y-12143580D01*
X11081720Y-11770980D02*
X11101720Y-11790980D01*
X11101720Y-11770980D02*
X11081720Y-11790980D01*
X11168080Y-11678620D02*
X11188080Y-11698620D01*
X11188080Y-11678620D02*
X11168080Y-11698620D01*
X11168080Y-12125660D02*
X11188080Y-12145660D01*
X11188080Y-12125660D02*
X11168080Y-12145660D01*
X11170160Y-11773060D02*
X11190160Y-11793060D01*
X11190160Y-11773060D02*
X11170160Y-11793060D01*
X11173160Y-11884820D02*
X11193160Y-11904820D01*
X11193160Y-11884820D02*
X11173160Y-11904820D01*
X11173160Y-12014820D02*
X11193160Y-12034820D01*
X11193160Y-12014820D02*
X11173160Y-12034820D01*
X11298080Y-11678620D02*
X11318080Y-11698620D01*
X11318080Y-11678620D02*
X11298080Y-11698620D01*
X11298080Y-12125660D02*
X11318080Y-12145660D01*
X11318080Y-12125660D02*
X11298080Y-12145660D01*
X11300160Y-11773060D02*
X11320160Y-11793060D01*
X11320160Y-11773060D02*
X11300160Y-11793060D01*
X11303160Y-11884820D02*
X11323160Y-11904820D01*
X11323160Y-11884820D02*
X11303160Y-11904820D01*
X11303160Y-12014820D02*
X11323160Y-12034820D01*
X11323160Y-12014820D02*
X11303160Y-12034820D01*
X11428080Y-11678620D02*
X11448080Y-11698620D01*
X11448080Y-11678620D02*
X11428080Y-11698620D01*
X11428080Y-12125660D02*
X11448080Y-12145660D01*
X11448080Y-12125660D02*
X11428080Y-12145660D01*
X11430160Y-11773060D02*
X11450160Y-11793060D01*
X11450160Y-11773060D02*
X11430160Y-11793060D01*
X11433160Y-11884820D02*
X11453160Y-11904820D01*
X11453160Y-11884820D02*
X11433160Y-11904820D01*
X11433160Y-12014820D02*
X11453160Y-12034820D01*
X11453160Y-12014820D02*
X11433160Y-12034820D01*
X11526680Y-11676540D02*
X11546680Y-11696540D01*
X11546680Y-11676540D02*
X11526680Y-11696540D01*
X11526680Y-12123580D02*
X11546680Y-12143580D01*
X11546680Y-12123580D02*
X11526680Y-12143580D01*
X11528760Y-11770980D02*
X11548760Y-11790980D01*
X11548760Y-11770980D02*
X11528760Y-11790980D01*
X11531760Y-12016900D02*
X11551760Y-12036900D01*
X11551760Y-12016900D02*
X11531760Y-12036900D01*
X11536840Y-11884820D02*
X11556840Y-11904820D01*
X11556840Y-11884820D02*
X11536840Y-11904820D01*
D13*
X10129404Y-6372540D02*
G75*
G03*
X10129404Y-6372540I-20000J0D01*
G01*
X10228464Y-6375080D02*
G75*
G03*
X10228464Y-6375080I-20000J0D01*
G01*
X10248580Y-7137400D02*
G75*
G03*
X10248580Y-7137400I-20000J0D01*
G01*
X10347640Y-7139940D02*
G75*
G03*
X10347640Y-7139940I-20000J0D01*
G01*
X10619420Y-11915140D02*
G75*
G03*
X10619420Y-11915140I-20000J0D01*
G01*
X10644820Y-11765280D02*
G75*
G03*
X10644820Y-11765280I-20000J0D01*
G01*
X10723560Y-11917680D02*
G75*
G03*
X10723560Y-11917680I-20000J0D01*
G01*
X10746420Y-11661140D02*
G75*
G03*
X10746420Y-11661140I-20000J0D01*
G01*
X10754040Y-12557760D02*
G75*
G03*
X10754040Y-12557760I-20000J0D01*
G01*
X10848020Y-5364480D02*
G75*
G03*
X10848020Y-5364480I-20000J0D01*
G01*
X10865800Y-12555220D02*
G75*
G03*
X10865800Y-12555220I-20000J0D01*
G01*
X10870880Y-11996420D02*
G75*
G03*
X10870880Y-11996420I-20000J0D01*
G01*
X10873420Y-11841480D02*
G75*
G03*
X10873420Y-11841480I-20000J0D01*
G01*
X10947080Y-5367020D02*
G75*
G03*
X10947080Y-5367020I-20000J0D01*
G01*
X10985180Y-11381010D02*
G75*
G03*
X10985180Y-11381010I-20000J0D01*
G01*
X11038520Y-12524740D02*
G75*
G03*
X11038520Y-12524740I-20000J0D01*
G01*
X11112180Y-10990580D02*
G75*
G03*
X11112180Y-10990580I-20000J0D01*
G01*
X11112180Y-11381010D02*
G75*
G03*
X11112180Y-11381010I-20000J0D01*
G01*
X11133702Y-12376082D02*
G75*
G03*
X11133702Y-12376082I-20000J0D01*
G01*
X11185840Y-11490960D02*
G75*
G03*
X11185840Y-11490960I-20000J0D01*
G01*
X11259500Y-6464300D02*
G75*
G03*
X11259500Y-6464300I-20000J0D01*
G01*
X11427140Y-11069320D02*
G75*
G03*
X11427140Y-11069320I-20000J0D01*
G01*
X11578458Y-10126567D02*
G75*
G03*
X11578458Y-10126567I-20000J0D01*
G01*
X11677518Y-10129107D02*
G75*
G03*
X11677518Y-10129107I-20000J0D01*
G01*
X11818300Y-11765280D02*
G75*
G03*
X11818300Y-11765280I-20000J0D01*
G01*
X11828460Y-12065000D02*
G75*
G03*
X11828460Y-12065000I-20000J0D01*
G01*
X11869100Y-7531100D02*
G75*
G03*
X11869100Y-7531100I-20000J0D01*
G01*
X11940220Y-11767820D02*
G75*
G03*
X11940220Y-11767820I-20000J0D01*
G01*
X11947840Y-12067540D02*
G75*
G03*
X11947840Y-12067540I-20000J0D01*
G01*
X11968160Y-7533640D02*
G75*
G03*
X11968160Y-7533640I-20000J0D01*
G01*
X11975780Y-14211300D02*
G75*
G03*
X11975780Y-14211300I-20000J0D01*
G01*
X11988480Y-6995160D02*
G75*
G03*
X11988480Y-6995160I-20000J0D01*
G01*
X12044360Y-9880600D02*
G75*
G03*
X12044360Y-9880600I-20000J0D01*
G01*
X12115480Y-12565380D02*
G75*
G03*
X12115480Y-12565380I-20000J0D01*
G01*
X12143420Y-10650220D02*
G75*
G03*
X12143420Y-10650220I-20000J0D01*
G01*
X12176440Y-7899400D02*
G75*
G03*
X12176440Y-7899400I-20000J0D01*
G01*
X12229780Y-10492740D02*
G75*
G03*
X12229780Y-10492740I-20000J0D01*
G01*
X12238670Y-12571730D02*
G75*
G03*
X12238670Y-12571730I-20000J0D01*
G01*
X12275500Y-10812780D02*
G75*
G03*
X12275500Y-10812780I-20000J0D01*
G01*
X12288200Y-11112500D02*
G75*
G03*
X12288200Y-11112500I-20000J0D01*
G01*
X12331380Y-12611100D02*
G75*
G03*
X12331380Y-12611100I-20000J0D01*
G01*
X12341540Y-11656060D02*
G75*
G03*
X12341540Y-11656060I-20000J0D01*
G01*
X12344080Y-11557000D02*
G75*
G03*
X12344080Y-11557000I-20000J0D01*
G01*
X12387260Y-6974840D02*
G75*
G03*
X12387260Y-6974840I-20000J0D01*
G01*
X12453300Y-14249400D02*
G75*
G03*
X12453300Y-14249400I-20000J0D01*
G01*
X12549820Y-7576820D02*
G75*
G03*
X12549820Y-7576820I-20000J0D01*
G01*
X12559980Y-6959600D02*
G75*
G03*
X12559980Y-6959600I-20000J0D01*
G01*
X12565060Y-12804140D02*
G75*
G03*
X12565060Y-12804140I-20000J0D01*
G01*
X12595540Y-12519660D02*
G75*
G03*
X12595540Y-12519660I-20000J0D01*
G01*
X12643800Y-14310360D02*
G75*
G03*
X12643800Y-14310360I-20000J0D01*
G01*
X12664120Y-12806680D02*
G75*
G03*
X12664120Y-12806680I-20000J0D01*
G01*
X12694600Y-12522200D02*
G75*
G03*
X12694600Y-12522200I-20000J0D01*
G01*
X12699680Y-5875020D02*
G75*
G03*
X12699680Y-5875020I-20000J0D01*
G01*
X12719571Y-8271055D02*
G75*
G03*
X12719571Y-8271055I-20000J0D01*
G01*
X12720000Y-8829040D02*
G75*
G03*
X12720000Y-8829040I-20000J0D01*
G01*
X12742860Y-14312900D02*
G75*
G03*
X12742860Y-14312900I-20000J0D01*
G01*
X12798740Y-5877560D02*
G75*
G03*
X12798740Y-5877560I-20000J0D01*
G01*
X12818631Y-8273595D02*
G75*
G03*
X12818631Y-8273595I-20000J0D01*
G01*
X12819060Y-8831580D02*
G75*
G03*
X12819060Y-8831580I-20000J0D01*
G01*
X12862240Y-5595620D02*
G75*
G03*
X12862240Y-5595620I-20000J0D01*
G01*
X12963840Y-13601700D02*
G75*
G03*
X12963840Y-13601700I-20000J0D01*
G01*
X13078140Y-7899400D02*
G75*
G03*
X13078140Y-7899400I-20000J0D01*
G01*
X13078140Y-11122660D02*
G75*
G03*
X13078140Y-11122660I-20000J0D01*
G01*
X13078140Y-11529060D02*
G75*
G03*
X13078140Y-11529060I-20000J0D01*
G01*
X13078140Y-11700610D02*
G75*
G03*
X13078140Y-11700610I-20000J0D01*
G01*
X13093380Y-11930380D02*
G75*
G03*
X13093380Y-11930380I-20000J0D01*
G01*
X13139100Y-9403080D02*
G75*
G03*
X13139100Y-9403080I-20000J0D01*
G01*
X13156880Y-12316460D02*
G75*
G03*
X13156880Y-12316460I-20000J0D01*
G01*
X13192440Y-11932920D02*
G75*
G03*
X13192440Y-11932920I-20000J0D01*
G01*
X13200060Y-11430000D02*
G75*
G03*
X13200060Y-11430000I-20000J0D01*
G01*
X13230540Y-9966960D02*
G75*
G03*
X13230540Y-9966960I-20000J0D01*
G01*
X13255940Y-12319000D02*
G75*
G03*
X13255940Y-12319000I-20000J0D01*
G01*
X13261020Y-11790680D02*
G75*
G03*
X13261020Y-11790680I-20000J0D01*
G01*
X13267370Y-12818110D02*
G75*
G03*
X13267370Y-12818110I-20000J0D01*
G01*
X13304200Y-11267440D02*
G75*
G03*
X13304200Y-11267440I-20000J0D01*
G01*
X13329600Y-9969500D02*
G75*
G03*
X13329600Y-9969500I-20000J0D01*
G01*
X13357540Y-10607040D02*
G75*
G03*
X13357540Y-10607040I-20000J0D01*
G01*
X13466760Y-14495780D02*
G75*
G03*
X13466760Y-14495780I-20000J0D01*
G01*
X13520100Y-10962640D02*
G75*
G03*
X13520100Y-10962640I-20000J0D01*
G01*
X13548040Y-6070600D02*
G75*
G03*
X13548040Y-6070600I-20000J0D01*
G01*
X13550580Y-5971540D02*
G75*
G03*
X13550580Y-5971540I-20000J0D01*
G01*
X13555660Y-12806680D02*
G75*
G03*
X13555660Y-12806680I-20000J0D01*
G01*
X13570900Y-7579360D02*
G75*
G03*
X13570900Y-7579360I-20000J0D01*
G01*
X13591220Y-7185660D02*
G75*
G03*
X13591220Y-7185660I-20000J0D01*
G01*
X13593760Y-6863080D02*
G75*
G03*
X13593760Y-6863080I-20000J0D01*
G01*
X13596300Y-11564620D02*
G75*
G03*
X13596300Y-11564620I-20000J0D01*
G01*
X13598840Y-11465560D02*
G75*
G03*
X13598840Y-11465560I-20000J0D01*
G01*
X13606460Y-13378180D02*
G75*
G03*
X13606460Y-13378180I-20000J0D01*
G01*
X13616620Y-14358620D02*
G75*
G03*
X13616620Y-14358620I-20000J0D01*
G01*
X13619160Y-10965180D02*
G75*
G03*
X13619160Y-10965180I-20000J0D01*
G01*
X13639480Y-9514840D02*
G75*
G03*
X13639480Y-9514840I-20000J0D01*
G01*
X13654720Y-12809220D02*
G75*
G03*
X13654720Y-12809220I-20000J0D01*
G01*
X13692820Y-5369560D02*
G75*
G03*
X13692820Y-5369560I-20000J0D01*
G01*
X13692820Y-8503920D02*
G75*
G03*
X13692820Y-8503920I-20000J0D01*
G01*
X13695360Y-5270500D02*
G75*
G03*
X13695360Y-5270500I-20000J0D01*
G01*
X13702980Y-7437120D02*
G75*
G03*
X13702980Y-7437120I-20000J0D01*
G01*
X13705520Y-6951980D02*
G75*
G03*
X13705520Y-6951980I-20000J0D01*
G01*
X13705520Y-13380720D02*
G75*
G03*
X13705520Y-13380720I-20000J0D01*
G01*
X13708060Y-6852920D02*
G75*
G03*
X13708060Y-6852920I-20000J0D01*
G01*
X13723300Y-9928860D02*
G75*
G03*
X13723300Y-9928860I-20000J0D01*
G01*
X13791880Y-8506460D02*
G75*
G03*
X13791880Y-8506460I-20000J0D01*
G01*
X13791880Y-11777980D02*
G75*
G03*
X13791880Y-11777980I-20000J0D01*
G01*
X13835060Y-7203440D02*
G75*
G03*
X13835060Y-7203440I-20000J0D01*
G01*
X13921420Y-13962380D02*
G75*
G03*
X13921420Y-13962380I-20000J0D01*
G01*
X14020480Y-7233920D02*
G75*
G03*
X14020480Y-7233920I-20000J0D01*
G01*
X14078900Y-5361940D02*
G75*
G03*
X14078900Y-5361940I-20000J0D01*
G01*
X14101760Y-11770360D02*
G75*
G03*
X14101760Y-11770360I-20000J0D01*
G01*
X14122080Y-12720320D02*
G75*
G03*
X14122080Y-12720320I-20000J0D01*
G01*
X14127160Y-9504680D02*
G75*
G03*
X14127160Y-9504680I-20000J0D01*
G01*
X14127160Y-13327380D02*
G75*
G03*
X14127160Y-13327380I-20000J0D01*
G01*
X14129700Y-10480040D02*
G75*
G03*
X14129700Y-10480040I-20000J0D01*
G01*
X14152560Y-9928860D02*
G75*
G03*
X14152560Y-9928860I-20000J0D01*
G01*
X14170340Y-12514580D02*
G75*
G03*
X14170340Y-12514580I-20000J0D01*
G01*
X14177960Y-5364480D02*
G75*
G03*
X14177960Y-5364480I-20000J0D01*
G01*
X14208440Y-7218680D02*
G75*
G03*
X14208440Y-7218680I-20000J0D01*
G01*
X14213520Y-8544560D02*
G75*
G03*
X14213520Y-8544560I-20000J0D01*
G01*
X14330360Y-6172200D02*
G75*
G03*
X14330360Y-6172200I-20000J0D01*
G01*
X14337980Y-6471920D02*
G75*
G03*
X14337980Y-6471920I-20000J0D01*
G01*
X14371000Y-14729460D02*
G75*
G03*
X14371000Y-14729460I-20000J0D01*
G01*
X14429420Y-6174740D02*
G75*
G03*
X14429420Y-6174740I-20000J0D01*
G01*
X14429420Y-7574280D02*
G75*
G03*
X14429420Y-7574280I-20000J0D01*
G01*
X14437040Y-6474460D02*
G75*
G03*
X14437040Y-6474460I-20000J0D01*
G01*
X14470060Y-14732000D02*
G75*
G03*
X14470060Y-14732000I-20000J0D01*
G01*
X14632620Y-14853920D02*
G75*
G03*
X14632620Y-14853920I-20000J0D01*
G01*
X14660560Y-5707380D02*
G75*
G03*
X14660560Y-5707380I-20000J0D01*
G01*
X14798610Y-10605470D02*
G75*
G03*
X14798610Y-10605470I-20000J0D01*
G01*
X14973530Y-10420390D02*
G75*
G03*
X14973530Y-10420390I-20000J0D01*
G01*
X14983140Y-5361940D02*
G75*
G03*
X14983140Y-5361940I-20000J0D01*
G01*
X15003460Y-14965680D02*
G75*
G03*
X15003460Y-14965680I-20000J0D01*
G01*
X15079660Y-6271260D02*
G75*
G03*
X15079660Y-6271260I-20000J0D01*
G01*
X15082200Y-5364480D02*
G75*
G03*
X15082200Y-5364480I-20000J0D01*
G01*
X15082200Y-6164580D02*
G75*
G03*
X15082200Y-6164580I-20000J0D01*
G01*
X15173640Y-5986780D02*
G75*
G03*
X15173640Y-5986780I-20000J0D01*
G01*
X15176180Y-5887720D02*
G75*
G03*
X15176180Y-5887720I-20000J0D01*
G01*
X15229920Y-13676820D02*
G75*
G03*
X15229920Y-13676820I-20000J0D01*
G01*
X15280320Y-7914640D02*
G75*
G03*
X15280320Y-7914640I-20000J0D01*
G01*
X15290480Y-5593080D02*
G75*
G03*
X15290480Y-5593080I-20000J0D01*
G01*
X15329720Y-10120760D02*
G75*
G03*
X15329720Y-10120760I-20000J0D01*
G01*
X15381920Y-6540500D02*
G75*
G03*
X15381920Y-6540500I-20000J0D01*
G01*
X15450500Y-8877300D02*
G75*
G03*
X15450500Y-8877300I-20000J0D01*
G01*
X15508920Y-6611620D02*
G75*
G03*
X15508920Y-6611620I-20000J0D01*
G01*
X15641000Y-14678660D02*
G75*
G03*
X15641000Y-14678660I-20000J0D01*
G01*
X15719740Y-6449060D02*
G75*
G03*
X15719740Y-6449060I-20000J0D01*
G01*
X15722280Y-6611620D02*
G75*
G03*
X15722280Y-6611620I-20000J0D01*
G01*
X15740060Y-14681200D02*
G75*
G03*
X15740060Y-14681200I-20000J0D01*
G01*
X15747680Y-7904480D02*
G75*
G03*
X15747680Y-7904480I-20000J0D01*
G01*
X15832720Y-13973860D02*
G75*
G03*
X15832720Y-13973860I-20000J0D01*
G01*
X15895400Y-11680380D02*
G75*
G03*
X15895400Y-11680380I-20000J0D01*
G01*
X15897540Y-9273540D02*
G75*
G03*
X15897540Y-9273540I-20000J0D01*
G01*
X15925880Y-12223940D02*
G75*
G03*
X15925880Y-12223940I-20000J0D01*
G01*
X15930560Y-7112000D02*
G75*
G03*
X15930560Y-7112000I-20000J0D01*
G01*
X15994460Y-11682920D02*
G75*
G03*
X15994460Y-11682920I-20000J0D01*
G01*
X15996600Y-9276080D02*
G75*
G03*
X15996600Y-9276080I-20000J0D01*
G01*
X16024940Y-12226480D02*
G75*
G03*
X16024940Y-12226480I-20000J0D01*
G01*
X16029620Y-7114540D02*
G75*
G03*
X16029620Y-7114540I-20000J0D01*
G01*
X16042320Y-6083300D02*
G75*
G03*
X16042320Y-6083300I-20000J0D01*
G01*
X16044860Y-5481320D02*
G75*
G03*
X16044860Y-5481320I-20000J0D01*
G01*
X16141380Y-6085840D02*
G75*
G03*
X16141380Y-6085840I-20000J0D01*
G01*
X16141380Y-11986260D02*
G75*
G03*
X16141380Y-11986260I-20000J0D01*
G01*
X16143920Y-5483860D02*
G75*
G03*
X16143920Y-5483860I-20000J0D01*
G01*
X16151540Y-8912860D02*
G75*
G03*
X16151540Y-8912860I-20000J0D01*
G01*
X16250600Y-8915400D02*
G75*
G03*
X16250600Y-8915400I-20000J0D01*
G01*
X16278540Y-7470140D02*
G75*
G03*
X16278540Y-7470140I-20000J0D01*
G01*
X16395780Y-12246800D02*
G75*
G03*
X16395780Y-12246800I-20000J0D01*
G01*
X16469040Y-11960860D02*
G75*
G03*
X16469040Y-11960860I-20000J0D01*
G01*
X16484280Y-11628120D02*
G75*
G03*
X16484280Y-11628120I-20000J0D01*
G01*
X16494840Y-12249340D02*
G75*
G03*
X16494840Y-12249340I-20000J0D01*
G01*
X16499520Y-7853680D02*
G75*
G03*
X16499520Y-7853680I-20000J0D01*
G01*
X16568100Y-11963400D02*
G75*
G03*
X16568100Y-11963400I-20000J0D01*
G01*
X16583340Y-11630660D02*
G75*
G03*
X16583340Y-11630660I-20000J0D01*
G01*
X16598580Y-7856220D02*
G75*
G03*
X16598580Y-7856220I-20000J0D01*
G01*
X16917010Y-10582570D02*
G75*
G03*
X16917010Y-10582570I-20000J0D01*
G01*
X17040540Y-8986520D02*
G75*
G03*
X17040540Y-8986520I-20000J0D01*
G01*
X17139600Y-8989060D02*
G75*
G03*
X17139600Y-8989060I-20000J0D01*
G01*
X17304700Y-9471660D02*
G75*
G03*
X17304700Y-9471660I-20000J0D01*
G01*
X17403760Y-9474200D02*
G75*
G03*
X17403760Y-9474200I-20000J0D01*
G01*
X17487580Y-8412480D02*
G75*
G03*
X17487580Y-8412480I-20000J0D01*
G01*
X17502820Y-6695440D02*
G75*
G03*
X17502820Y-6695440I-20000J0D01*
G01*
X17520600Y-9928860D02*
G75*
G03*
X17520600Y-9928860I-20000J0D01*
G01*
X17586640Y-8415020D02*
G75*
G03*
X17586640Y-8415020I-20000J0D01*
G01*
X17601880Y-6697980D02*
G75*
G03*
X17601880Y-6697980I-20000J0D01*
G01*
X17612040Y-12255500D02*
G75*
G03*
X17612040Y-12255500I-20000J0D01*
G01*
X17614580Y-14615160D02*
G75*
G03*
X17614580Y-14615160I-20000J0D01*
G01*
X17614980Y-13727620D02*
G75*
G03*
X17614980Y-13727620I-20000J0D01*
G01*
X17673000Y-6337300D02*
G75*
G03*
X17673000Y-6337300I-20000J0D01*
G01*
X17713640Y-14617700D02*
G75*
G03*
X17713640Y-14617700I-20000J0D01*
G01*
X17733960Y-12001500D02*
G75*
G03*
X17733960Y-12001500I-20000J0D01*
G01*
X17772060Y-6339840D02*
G75*
G03*
X17772060Y-6339840I-20000J0D01*
G01*
X17772060Y-7360920D02*
G75*
G03*
X17772060Y-7360920I-20000J0D01*
G01*
X17774600Y-7462520D02*
G75*
G03*
X17774600Y-7462520I-20000J0D01*
G01*
X17835590Y-10422710D02*
G75*
G03*
X17835590Y-10422710I-20000J0D01*
G01*
X17850800Y-8783320D02*
G75*
G03*
X17850800Y-8783320I-20000J0D01*
G01*
X17954940Y-5377180D02*
G75*
G03*
X17954940Y-5377180I-20000J0D01*
G01*
X17965100Y-9357360D02*
G75*
G03*
X17965100Y-9357360I-20000J0D01*
G01*
X18026060Y-7198360D02*
G75*
G03*
X18026060Y-7198360I-20000J0D01*
G01*
X18054000Y-5379720D02*
G75*
G03*
X18054000Y-5379720I-20000J0D01*
G01*
X18125120Y-7200900D02*
G75*
G03*
X18125120Y-7200900I-20000J0D01*
G01*
X18419760Y-7449820D02*
G75*
G03*
X18419760Y-7449820I-20000J0D01*
G01*
X18460400Y-8765540D02*
G75*
G03*
X18460400Y-8765540I-20000J0D01*
G01*
X18544220Y-6675120D02*
G75*
G03*
X18544220Y-6675120I-20000J0D01*
G01*
X18559460Y-8768080D02*
G75*
G03*
X18559460Y-8768080I-20000J0D01*
G01*
X18562000Y-9542780D02*
G75*
G03*
X18562000Y-9542780I-20000J0D01*
G01*
X18574700Y-12329160D02*
G75*
G03*
X18574700Y-12329160I-20000J0D01*
G01*
X18574700Y-12753340D02*
G75*
G03*
X18574700Y-12753340I-20000J0D01*
G01*
X18582320Y-14015720D02*
G75*
G03*
X18582320Y-14015720I-20000J0D01*
G01*
X18681380Y-14018260D02*
G75*
G03*
X18681380Y-14018260I-20000J0D01*
G01*
X18907440Y-5311140D02*
G75*
G03*
X18907440Y-5311140I-20000J0D01*
G01*
X18991260Y-11112500D02*
G75*
G03*
X18991260Y-11112500I-20000J0D01*
G01*
X19024280Y-10167620D02*
G75*
G03*
X19024280Y-10167620I-20000J0D01*
G01*
X19090320Y-11115040D02*
G75*
G03*
X19090320Y-11115040I-20000J0D01*
G01*
X19123340Y-10170160D02*
G75*
G03*
X19123340Y-10170160I-20000J0D01*
G01*
X19174140Y-5316220D02*
G75*
G03*
X19174140Y-5316220I-20000J0D01*
G01*
X19224940Y-9580880D02*
G75*
G03*
X19224940Y-9580880I-20000J0D01*
G01*
X19273200Y-5318760D02*
G75*
G03*
X19273200Y-5318760I-20000J0D01*
G01*
X19290980Y-8831580D02*
G75*
G03*
X19290980Y-8831580I-20000J0D01*
G01*
X19324000Y-12235180D02*
G75*
G03*
X19324000Y-12235180I-20000J0D01*
G01*
X19326540Y-13154660D02*
G75*
G03*
X19326540Y-13154660I-20000J0D01*
G01*
X19390040Y-8834120D02*
G75*
G03*
X19390040Y-8834120I-20000J0D01*
G01*
X19423060Y-12237720D02*
G75*
G03*
X19423060Y-12237720I-20000J0D01*
G01*
X19425600Y-13157200D02*
G75*
G03*
X19425600Y-13157200I-20000J0D01*
G01*
X19468780Y-8186420D02*
G75*
G03*
X19468780Y-8186420I-20000J0D01*
G01*
X19524660Y-9608820D02*
G75*
G03*
X19524660Y-9608820I-20000J0D01*
G01*
X19539900Y-7945120D02*
G75*
G03*
X19539900Y-7945120I-20000J0D01*
G01*
X19557680Y-8793480D02*
G75*
G03*
X19557680Y-8793480I-20000J0D01*
G01*
X19567840Y-8188960D02*
G75*
G03*
X19567840Y-8188960I-20000J0D01*
G01*
X19570380Y-14429740D02*
G75*
G03*
X19570380Y-14429740I-20000J0D01*
G01*
X19583080Y-6337300D02*
G75*
G03*
X19583080Y-6337300I-20000J0D01*
G01*
X19669440Y-14432280D02*
G75*
G03*
X19669440Y-14432280I-20000J0D01*
G01*
X19682140Y-6339840D02*
G75*
G03*
X19682140Y-6339840I-20000J0D01*
G01*
X19750720Y-9857740D02*
G75*
G03*
X19750720Y-9857740I-20000J0D01*
G01*
D14*
X11427260Y-5391920D02*
X11427260Y-5451920D01*
X11397260Y-5421920D02*
X11457260Y-5421920D01*
D11*
X11447260Y-5451920D02*
X11447260Y-5391920D01*
X11407260Y-5451920D02*
X11407260Y-5391920D01*
X11447260Y-5391920D02*
G75*
G03*
X11407260Y-5391920I-20000J0D01*
G01*
X11407260Y-5451920D02*
G75*
G03*
X11447260Y-5451920I20000J0D01*
G01*
D14*
X11427260Y-5809920D02*
X11427260Y-5869920D01*
X11397260Y-5839920D02*
X11457260Y-5839920D01*
D11*
X11447260Y-5894920D02*
X11447260Y-5784920D01*
X11407260Y-5894920D02*
X11407260Y-5784920D01*
X11447260Y-5784920D02*
G75*
G03*
X11407260Y-5784920I-20000J0D01*
G01*
X11407260Y-5894920D02*
G75*
G03*
X11447260Y-5894920I20000J0D01*
G01*
D14*
X12291260Y-5391920D02*
X12291260Y-5451920D01*
X12261260Y-5421920D02*
X12321260Y-5421920D01*
D11*
X12311260Y-5451920D02*
X12311260Y-5391920D01*
X12271260Y-5451920D02*
X12271260Y-5391920D01*
X12311260Y-5391920D02*
G75*
G03*
X12271260Y-5391920I-20000J0D01*
G01*
X12271260Y-5451920D02*
G75*
G03*
X12311260Y-5451920I20000J0D01*
G01*
D14*
X12291260Y-5809920D02*
X12291260Y-5869920D01*
X12261260Y-5839920D02*
X12321260Y-5839920D01*
D11*
X12311260Y-5894920D02*
X12311260Y-5784920D01*
X12271260Y-5894920D02*
X12271260Y-5784920D01*
X12311260Y-5784920D02*
G75*
G03*
X12271260Y-5784920I-20000J0D01*
G01*
X12271260Y-5894920D02*
G75*
G03*
X12311260Y-5894920I20000J0D01*
G01*
D14*
X16763800Y-5389380D02*
X16763800Y-5449380D01*
X16733800Y-5419380D02*
X16793800Y-5419380D01*
D11*
X16783800Y-5449380D02*
X16783800Y-5389380D01*
X16743800Y-5449380D02*
X16743800Y-5389380D01*
X16783800Y-5389380D02*
G75*
G03*
X16743800Y-5389380I-20000J0D01*
G01*
X16743800Y-5449380D02*
G75*
G03*
X16783800Y-5449380I20000J0D01*
G01*
D14*
X16763800Y-5807380D02*
X16763800Y-5867380D01*
X16733800Y-5837380D02*
X16793800Y-5837380D01*
D11*
X16783800Y-5892380D02*
X16783800Y-5782380D01*
X16743800Y-5892380D02*
X16743800Y-5782380D01*
X16783800Y-5782380D02*
G75*
G03*
X16743800Y-5782380I-20000J0D01*
G01*
X16743800Y-5892380D02*
G75*
G03*
X16783800Y-5892380I20000J0D01*
G01*
D14*
X17627800Y-5389380D02*
X17627800Y-5449380D01*
X17597800Y-5419380D02*
X17657800Y-5419380D01*
D11*
X17647800Y-5449380D02*
X17647800Y-5389380D01*
X17607800Y-5449380D02*
X17607800Y-5389380D01*
X17647800Y-5389380D02*
G75*
G03*
X17607800Y-5389380I-20000J0D01*
G01*
X17607800Y-5449380D02*
G75*
G03*
X17647800Y-5449380I20000J0D01*
G01*
D14*
X17627800Y-5807380D02*
X17627800Y-5867380D01*
X17597800Y-5837380D02*
X17657800Y-5837380D01*
D11*
X17647800Y-5892380D02*
X17647800Y-5782380D01*
X17607800Y-5892380D02*
X17607800Y-5782380D01*
X17647800Y-5782380D02*
G75*
G03*
X17607800Y-5782380I-20000J0D01*
G01*
X17607800Y-5892380D02*
G75*
G03*
X17647800Y-5892380I20000J0D01*
G01*
D15*
X14301504Y-10128365D02*
X14301504Y-10071796D01*
X14244935Y-10071796D01*
X14244935Y-10128365D01*
X14301504Y-10128365D01*
X14301504Y-10382365D02*
X14301504Y-10325796D01*
X14244935Y-10325796D01*
X14244935Y-10382365D01*
X14301504Y-10382365D01*
X14301504Y-10636365D02*
X14301504Y-10579796D01*
X14244935Y-10579796D01*
X14244935Y-10636365D01*
X14301504Y-10636365D01*
X14301504Y-10890365D02*
X14301504Y-10833796D01*
X14244935Y-10833796D01*
X14244935Y-10890365D01*
X14301504Y-10890365D01*
X14301504Y-11144365D02*
X14301504Y-11087796D01*
X14244935Y-11087796D01*
X14244935Y-11144365D01*
X14301504Y-11144365D01*
X14301504Y-11398364D02*
X14301504Y-11341795D01*
X14244935Y-11341795D01*
X14244935Y-11398364D01*
X14301504Y-11398364D01*
X14301504Y-11652364D02*
X14301504Y-11595795D01*
X14244935Y-11595795D01*
X14244935Y-11652364D01*
X14301504Y-11652364D01*
X14301504Y-11906364D02*
X14301504Y-11849795D01*
X14244935Y-11849795D01*
X14244935Y-11906364D01*
X14301504Y-11906364D01*
X14301504Y-12160364D02*
X14301504Y-12103795D01*
X14244935Y-12103795D01*
X14244935Y-12160364D01*
X14301504Y-12160364D01*
X14301504Y-12414364D02*
X14301504Y-12357795D01*
X14244935Y-12357795D01*
X14244935Y-12414364D01*
X14301504Y-12414364D01*
X14301504Y-12668364D02*
X14301504Y-12611795D01*
X14244935Y-12611795D01*
X14244935Y-12668364D01*
X14301504Y-12668364D01*
X14301504Y-12922364D02*
X14301504Y-12865795D01*
X14244935Y-12865795D01*
X14244935Y-12922364D01*
X14301504Y-12922364D01*
X14301504Y-13176364D02*
X14301504Y-13119795D01*
X14244935Y-13119795D01*
X14244935Y-13176364D01*
X14301504Y-13176364D01*
X14301504Y-13430364D02*
X14301504Y-13373795D01*
X14244935Y-13373795D01*
X14244935Y-13430364D01*
X14301504Y-13430364D01*
X14301504Y-13684364D02*
X14301504Y-13627795D01*
X14244935Y-13627795D01*
X14244935Y-13684364D01*
X14301504Y-13684364D01*
X14301504Y-13938364D02*
X14301504Y-13881795D01*
X14244935Y-13881795D01*
X14244935Y-13938364D01*
X14301504Y-13938364D01*
X14317004Y-14263864D02*
X14317004Y-14207295D01*
X14260435Y-14207295D01*
X14260435Y-14263864D01*
X14317004Y-14263864D01*
X14322004Y-9788865D02*
X14322004Y-9732296D01*
X14265435Y-9732296D01*
X14265435Y-9788865D01*
X14322004Y-9788865D01*
X14571004Y-14263864D02*
X14571004Y-14207295D01*
X14514435Y-14207295D01*
X14514435Y-14263864D01*
X14571004Y-14263864D01*
X14576004Y-9788865D02*
X14576004Y-9732296D01*
X14519435Y-9732296D01*
X14519435Y-9788865D01*
X14576004Y-9788865D01*
X14825004Y-14263864D02*
X14825004Y-14207295D01*
X14768435Y-14207295D01*
X14768435Y-14263864D01*
X14825004Y-14263864D01*
X14830004Y-9788865D02*
X14830004Y-9732296D01*
X14773435Y-9732296D01*
X14773435Y-9788865D01*
X14830004Y-9788865D01*
X15079004Y-14263864D02*
X15079004Y-14207295D01*
X15022435Y-14207295D01*
X15022435Y-14263864D01*
X15079004Y-14263864D01*
X15084004Y-9788865D02*
X15084004Y-9732296D01*
X15027435Y-9732296D01*
X15027435Y-9788865D01*
X15084004Y-9788865D01*
X15333004Y-14263864D02*
X15333004Y-14207295D01*
X15276435Y-14207295D01*
X15276435Y-14263864D01*
X15333004Y-14263864D01*
X15338004Y-9788865D02*
X15338004Y-9732296D01*
X15281435Y-9732296D01*
X15281435Y-9788865D01*
X15338004Y-9788865D01*
X15587004Y-14263864D02*
X15587004Y-14207295D01*
X15530435Y-14207295D01*
X15530435Y-14263864D01*
X15587004Y-14263864D01*
X15592004Y-9788865D02*
X15592004Y-9732296D01*
X15535435Y-9732296D01*
X15535435Y-9788865D01*
X15592004Y-9788865D01*
X15841004Y-14263864D02*
X15841004Y-14207295D01*
X15784435Y-14207295D01*
X15784435Y-14263864D01*
X15841004Y-14263864D01*
X15846004Y-9788865D02*
X15846004Y-9732296D01*
X15789435Y-9732296D01*
X15789435Y-9788865D01*
X15846004Y-9788865D01*
X16095004Y-14263864D02*
X16095004Y-14207295D01*
X16038435Y-14207295D01*
X16038435Y-14263864D01*
X16095004Y-14263864D01*
X16100004Y-9788865D02*
X16100004Y-9732296D01*
X16043435Y-9732296D01*
X16043435Y-9788865D01*
X16100004Y-9788865D01*
X16349004Y-14263864D02*
X16349004Y-14207295D01*
X16292435Y-14207295D01*
X16292435Y-14263864D01*
X16349004Y-14263864D01*
X16354004Y-9788865D02*
X16354004Y-9732296D01*
X16297435Y-9732296D01*
X16297435Y-9788865D01*
X16354004Y-9788865D01*
X16603004Y-14263864D02*
X16603004Y-14207295D01*
X16546435Y-14207295D01*
X16546435Y-14263864D01*
X16603004Y-14263864D01*
X16608004Y-9788865D02*
X16608004Y-9732296D01*
X16551435Y-9732296D01*
X16551435Y-9788865D01*
X16608004Y-9788865D01*
X16857005Y-14263864D02*
X16857005Y-14207295D01*
X16800436Y-14207295D01*
X16800436Y-14263864D01*
X16857005Y-14263864D01*
X16862005Y-9788865D02*
X16862005Y-9732296D01*
X16805436Y-9732296D01*
X16805436Y-9788865D01*
X16862005Y-9788865D01*
X17111005Y-14263864D02*
X17111005Y-14207295D01*
X17054436Y-14207295D01*
X17054436Y-14263864D01*
X17111005Y-14263864D01*
X17116005Y-9788865D02*
X17116005Y-9732296D01*
X17059436Y-9732296D01*
X17059436Y-9788865D01*
X17116005Y-9788865D01*
X17365005Y-14263864D02*
X17365005Y-14207295D01*
X17308436Y-14207295D01*
X17308436Y-14263864D01*
X17365005Y-14263864D01*
X17370005Y-9788865D02*
X17370005Y-9732296D01*
X17313436Y-9732296D01*
X17313436Y-9788865D01*
X17370005Y-9788865D01*
X17619005Y-14263864D02*
X17619005Y-14207295D01*
X17562436Y-14207295D01*
X17562436Y-14263864D01*
X17619005Y-14263864D01*
X17624005Y-9788865D02*
X17624005Y-9732296D01*
X17567436Y-9732296D01*
X17567436Y-9788865D01*
X17624005Y-9788865D01*
X17873005Y-14263864D02*
X17873005Y-14207295D01*
X17816436Y-14207295D01*
X17816436Y-14263864D01*
X17873005Y-14263864D01*
X17878005Y-9788865D02*
X17878005Y-9732296D01*
X17821436Y-9732296D01*
X17821436Y-9788865D01*
X17878005Y-9788865D01*
X18127005Y-14263864D02*
X18127005Y-14207295D01*
X18070436Y-14207295D01*
X18070436Y-14263864D01*
X18127005Y-14263864D01*
X18132005Y-9788865D02*
X18132005Y-9732296D01*
X18075436Y-9732296D01*
X18075436Y-9788865D01*
X18132005Y-9788865D01*
X18141505Y-10153365D02*
X18141505Y-10096796D01*
X18084936Y-10096796D01*
X18084936Y-10153365D01*
X18141505Y-10153365D01*
X18141505Y-10407365D02*
X18141505Y-10350796D01*
X18084936Y-10350796D01*
X18084936Y-10407365D01*
X18141505Y-10407365D01*
X18141505Y-10661365D02*
X18141505Y-10604796D01*
X18084936Y-10604796D01*
X18084936Y-10661365D01*
X18141505Y-10661365D01*
X18141505Y-10915365D02*
X18141505Y-10858796D01*
X18084936Y-10858796D01*
X18084936Y-10915365D01*
X18141505Y-10915365D01*
X18141505Y-11169365D02*
X18141505Y-11112796D01*
X18084936Y-11112796D01*
X18084936Y-11169365D01*
X18141505Y-11169365D01*
X18141505Y-11423364D02*
X18141505Y-11366795D01*
X18084936Y-11366795D01*
X18084936Y-11423364D01*
X18141505Y-11423364D01*
X18141505Y-11677364D02*
X18141505Y-11620795D01*
X18084936Y-11620795D01*
X18084936Y-11677364D01*
X18141505Y-11677364D01*
X18141505Y-11931364D02*
X18141505Y-11874795D01*
X18084936Y-11874795D01*
X18084936Y-11931364D01*
X18141505Y-11931364D01*
X18141505Y-12185364D02*
X18141505Y-12128795D01*
X18084936Y-12128795D01*
X18084936Y-12185364D01*
X18141505Y-12185364D01*
X18141505Y-12439364D02*
X18141505Y-12382795D01*
X18084936Y-12382795D01*
X18084936Y-12439364D01*
X18141505Y-12439364D01*
X18141505Y-12693364D02*
X18141505Y-12636795D01*
X18084936Y-12636795D01*
X18084936Y-12693364D01*
X18141505Y-12693364D01*
X18141505Y-12947364D02*
X18141505Y-12890795D01*
X18084936Y-12890795D01*
X18084936Y-12947364D01*
X18141505Y-12947364D01*
X18141505Y-13201364D02*
X18141505Y-13144795D01*
X18084936Y-13144795D01*
X18084936Y-13201364D01*
X18141505Y-13201364D01*
X18141505Y-13455364D02*
X18141505Y-13398795D01*
X18084936Y-13398795D01*
X18084936Y-13455364D01*
X18141505Y-13455364D01*
X18141505Y-13709364D02*
X18141505Y-13652795D01*
X18084936Y-13652795D01*
X18084936Y-13709364D01*
X18141505Y-13709364D01*
X18141505Y-13963364D02*
X18141505Y-13906795D01*
X18084936Y-13906795D01*
X18084936Y-13963364D01*
X18141505Y-13963364D01*
D16*
X11396280Y-14898880D02*
X11443780Y-14851380D01*
X11396280Y-14803880D01*
X11348780Y-14851380D01*
X11396280Y-14898880D01*
X11646280Y-14898880D02*
X11693780Y-14851380D01*
X11646280Y-14803880D01*
X11598780Y-14851380D01*
X11646280Y-14898880D01*
X11896280Y-14898880D02*
X11943780Y-14851380D01*
X11896280Y-14803880D01*
X11848780Y-14851380D01*
X11896280Y-14898880D01*
X12146280Y-14898880D02*
X12193780Y-14851380D01*
X12146280Y-14803880D01*
X12098780Y-14851380D01*
X12146280Y-14898880D01*
X12833920Y-14898880D02*
X12881420Y-14851380D01*
X12833920Y-14803880D01*
X12786420Y-14851380D01*
X12833920Y-14898880D01*
X13083920Y-14898880D02*
X13131420Y-14851380D01*
X13083920Y-14803880D01*
X13036420Y-14851380D01*
X13083920Y-14898880D01*
X13333920Y-14898880D02*
X13381420Y-14851380D01*
X13333920Y-14803880D01*
X13286420Y-14851380D01*
X13333920Y-14898880D01*
X13583920Y-14898880D02*
X13631420Y-14851380D01*
X13583920Y-14803880D01*
X13536420Y-14851380D01*
X13583920Y-14898880D01*
X19011900Y-11838940D02*
X19059400Y-11791440D01*
X19011900Y-11743940D01*
X18964400Y-11791440D01*
X19011900Y-11838940D01*
X19011900Y-12088940D02*
X19059400Y-12041440D01*
X19011900Y-11993940D01*
X18964400Y-12041440D01*
X19011900Y-12088940D01*
X19011900Y-12338940D02*
X19059400Y-12291440D01*
X19011900Y-12243940D01*
X18964400Y-12291440D01*
X19011900Y-12338940D01*
X19011900Y-12588940D02*
X19059400Y-12541440D01*
X19011900Y-12493940D01*
X18964400Y-12541440D01*
X19011900Y-12588940D01*
X19011900Y-12838940D02*
X19059400Y-12791440D01*
X19011900Y-12743940D01*
X18964400Y-12791440D01*
X19011900Y-12838940D01*
X19011900Y-13088940D02*
X19059400Y-13041440D01*
X19011900Y-12993940D01*
X18964400Y-13041440D01*
X19011900Y-13088940D01*
X19011900Y-13338940D02*
X19059400Y-13291440D01*
X19011900Y-13243940D01*
X18964400Y-13291440D01*
X19011900Y-13338940D01*
X19011900Y-13588940D02*
X19059400Y-13541440D01*
X19011900Y-13493940D01*
X18964400Y-13541440D01*
X19011900Y-13588940D01*
D17*
X10729680Y-7974900D02*
X10829680Y-8074900D01*
X10829680Y-7974900D02*
X10729680Y-8074900D01*
X10829680Y-8024900D02*
G75*
G03*
X10829680Y-8024900I-50000J0D01*
G01*
D11*
X10739680Y-7914900D02*
X10739680Y-8134900D01*
X10819680Y-7914900D02*
X10819680Y-8134900D01*
X10739680Y-8134900D02*
G75*
G03*
X10819680Y-8134900I40000J0D01*
G01*
X10819680Y-7914900D02*
G75*
G03*
X10739680Y-7914900I-40000J0D01*
G01*
D17*
X11069680Y-8454900D02*
X11169680Y-8554900D01*
X11169680Y-8454900D02*
X11069680Y-8554900D01*
X11169680Y-8504900D02*
G75*
G03*
X11169680Y-8504900I-50000J0D01*
G01*
D11*
X11229680Y-8464900D02*
X11009680Y-8464900D01*
X11229680Y-8544900D02*
X11009680Y-8544900D01*
X11009680Y-8464900D02*
G75*
G03*
X11009680Y-8544900I0J-40000D01*
G01*
X11229680Y-8544900D02*
G75*
G03*
X11229680Y-8464900I0J40000D01*
G01*
D17*
X11359680Y-7974900D02*
X11459680Y-8074900D01*
X11459680Y-7974900D02*
X11359680Y-8074900D01*
X11459680Y-8024900D02*
G75*
G03*
X11459680Y-8024900I-50000J0D01*
G01*
D11*
X11369680Y-7894900D02*
X11369680Y-8154900D01*
X11449680Y-7894900D02*
X11449680Y-8154900D01*
X11369680Y-8154900D02*
G75*
G03*
X11449680Y-8154900I40000J0D01*
G01*
X11449680Y-7894900D02*
G75*
G03*
X11369680Y-7894900I-40000J0D01*
G01*
D18*
X10927490Y-13064340D02*
X11067490Y-13204340D01*
X11067490Y-13064340D02*
X10927490Y-13204340D01*
X10997490Y-13064340D02*
X10997490Y-13204340D01*
X10927490Y-13134340D02*
X11067490Y-13134340D01*
X10927490Y-13572340D02*
X11067490Y-13712340D01*
X11067490Y-13572340D02*
X10927490Y-13712340D01*
X10997490Y-13572340D02*
X10997490Y-13712340D01*
X10927490Y-13642340D02*
X11067490Y-13642340D01*
X10953600Y-9162900D02*
X11093600Y-9302900D01*
X11093600Y-9162900D02*
X10953600Y-9302900D01*
X11023600Y-9162900D02*
X11023600Y-9302900D01*
X10953600Y-9232900D02*
X11093600Y-9232900D01*
X10953600Y-9670900D02*
X11093600Y-9810900D01*
X11093600Y-9670900D02*
X10953600Y-9810900D01*
X11023600Y-9670900D02*
X11023600Y-9810900D01*
X10953600Y-9740900D02*
X11093600Y-9740900D01*
D19*
X10106680Y-14582160D02*
X10426680Y-14902160D01*
X10426680Y-14582160D02*
X10106680Y-14902160D01*
X10379818Y-14855298D02*
X10379818Y-14629022D01*
X10153542Y-14629022D01*
X10153542Y-14855298D01*
X10379818Y-14855298D01*
X10147320Y-5326400D02*
X10467320Y-5646400D01*
X10467320Y-5326400D02*
X10147320Y-5646400D01*
X10420458Y-5599538D02*
X10420458Y-5373262D01*
X10194182Y-5373262D01*
X10194182Y-5599538D01*
X10420458Y-5599538D01*
X19403080Y-14622800D02*
X19723080Y-14942800D01*
X19723080Y-14622800D02*
X19403080Y-14942800D01*
X19676218Y-14895938D02*
X19676218Y-14669662D01*
X19449942Y-14669662D01*
X19449942Y-14895938D01*
X19676218Y-14895938D01*
X19466580Y-5280680D02*
X19786580Y-5600680D01*
X19786580Y-5280680D02*
X19466580Y-5600680D01*
X19739718Y-5553818D02*
X19739718Y-5327542D01*
X19513442Y-5327542D01*
X19513442Y-5553818D01*
X19739718Y-5553818D01*
D11*
X10159959Y-15425876D02*
X10159959Y-15225876D01*
X10207578Y-15225876D01*
X10236150Y-15235400D01*
X10255197Y-15254448D01*
X10264721Y-15273495D01*
X10274245Y-15311590D01*
X10274245Y-15340162D01*
X10264721Y-15378257D01*
X10255197Y-15397305D01*
X10236150Y-15416352D01*
X10207578Y-15425876D01*
X10159959Y-15425876D01*
X10359959Y-15425876D02*
X10359959Y-15292543D01*
X10359959Y-15330638D02*
X10369483Y-15311590D01*
X10379007Y-15302067D01*
X10398054Y-15292543D01*
X10417102Y-15292543D01*
X10483769Y-15425876D02*
X10483769Y-15292543D01*
X10483769Y-15225876D02*
X10474245Y-15235400D01*
X10483769Y-15244924D01*
X10493292Y-15235400D01*
X10483769Y-15225876D01*
X10483769Y-15244924D01*
X10607578Y-15425876D02*
X10588530Y-15416352D01*
X10579007Y-15397305D01*
X10579007Y-15225876D01*
X10712340Y-15425876D02*
X10693292Y-15416352D01*
X10683769Y-15397305D01*
X10683769Y-15225876D01*
X10940911Y-15425876D02*
X10940911Y-15225876D01*
X11007578Y-15368733D01*
X11074245Y-15225876D01*
X11074245Y-15425876D01*
X11255197Y-15425876D02*
X11255197Y-15321114D01*
X11245673Y-15302067D01*
X11226626Y-15292543D01*
X11188530Y-15292543D01*
X11169483Y-15302067D01*
X11255197Y-15416352D02*
X11236149Y-15425876D01*
X11188530Y-15425876D01*
X11169483Y-15416352D01*
X11159959Y-15397305D01*
X11159959Y-15378257D01*
X11169483Y-15359209D01*
X11188530Y-15349686D01*
X11236149Y-15349686D01*
X11255197Y-15340162D01*
X11350435Y-15292543D02*
X11350435Y-15492543D01*
X11350435Y-15302067D02*
X11369483Y-15292543D01*
X11407578Y-15292543D01*
X11426626Y-15302067D01*
X11436149Y-15311590D01*
X11445673Y-15330638D01*
X11445673Y-15387781D01*
X11436149Y-15406828D01*
X11426626Y-15416352D01*
X11407578Y-15425876D01*
X11369483Y-15425876D01*
X11350435Y-15416352D01*
X11531388Y-15406828D02*
X11540911Y-15416352D01*
X11531388Y-15425876D01*
X11521864Y-15416352D01*
X11531388Y-15406828D01*
X11531388Y-15425876D01*
X11531388Y-15302067D02*
X11540911Y-15311590D01*
X11531388Y-15321114D01*
X11521864Y-15311590D01*
X11531388Y-15302067D01*
X11531388Y-15321114D01*
D12*
X9882340Y-15745400D02*
X9902340Y-15765400D01*
X9902340Y-15745400D02*
X9882340Y-15765400D01*
D11*
X10198054Y-15645876D02*
X10217102Y-15645876D01*
X10236150Y-15655400D01*
X10245673Y-15664924D01*
X10255197Y-15683971D01*
X10264721Y-15722067D01*
X10264721Y-15769686D01*
X10255197Y-15807781D01*
X10245673Y-15826828D01*
X10236150Y-15836352D01*
X10217102Y-15845876D01*
X10198054Y-15845876D01*
X10179007Y-15836352D01*
X10169483Y-15826828D01*
X10159959Y-15807781D01*
X10150435Y-15769686D01*
X10150435Y-15722067D01*
X10159959Y-15683971D01*
X10169483Y-15664924D01*
X10179007Y-15655400D01*
X10198054Y-15645876D01*
X10350435Y-15826828D02*
X10359959Y-15836352D01*
X10350435Y-15845876D01*
X10340911Y-15836352D01*
X10350435Y-15826828D01*
X10350435Y-15845876D01*
X10436150Y-15664924D02*
X10445673Y-15655400D01*
X10464721Y-15645876D01*
X10512340Y-15645876D01*
X10531388Y-15655400D01*
X10540911Y-15664924D01*
X10550435Y-15683971D01*
X10550435Y-15703019D01*
X10540911Y-15731590D01*
X10426626Y-15845876D01*
X10550435Y-15845876D01*
X10674245Y-15645876D02*
X10693292Y-15645876D01*
X10712340Y-15655400D01*
X10721864Y-15664924D01*
X10731388Y-15683971D01*
X10740911Y-15722067D01*
X10740911Y-15769686D01*
X10731388Y-15807781D01*
X10721864Y-15826828D01*
X10712340Y-15836352D01*
X10693292Y-15845876D01*
X10674245Y-15845876D01*
X10655197Y-15836352D01*
X10645673Y-15826828D01*
X10636150Y-15807781D01*
X10626626Y-15769686D01*
X10626626Y-15722067D01*
X10636150Y-15683971D01*
X10645673Y-15664924D01*
X10655197Y-15655400D01*
X10674245Y-15645876D01*
X10864721Y-15645876D02*
X10883769Y-15645876D01*
X10902816Y-15655400D01*
X10912340Y-15664924D01*
X10921864Y-15683971D01*
X10931388Y-15722067D01*
X10931388Y-15769686D01*
X10921864Y-15807781D01*
X10912340Y-15826828D01*
X10902816Y-15836352D01*
X10883769Y-15845876D01*
X10864721Y-15845876D01*
X10845673Y-15836352D01*
X10836150Y-15826828D01*
X10826626Y-15807781D01*
X10817102Y-15769686D01*
X10817102Y-15722067D01*
X10826626Y-15683971D01*
X10836150Y-15664924D01*
X10845673Y-15655400D01*
X10864721Y-15645876D01*
X11017102Y-15845876D02*
X11017102Y-15712543D01*
X11017102Y-15731590D02*
X11026626Y-15722067D01*
X11045673Y-15712543D01*
X11074245Y-15712543D01*
X11093292Y-15722067D01*
X11102816Y-15741114D01*
X11102816Y-15845876D01*
X11102816Y-15741114D02*
X11112340Y-15722067D01*
X11131388Y-15712543D01*
X11159959Y-15712543D01*
X11179007Y-15722067D01*
X11188530Y-15741114D01*
X11188530Y-15845876D01*
X11283768Y-15845876D02*
X11283768Y-15712543D01*
X11283768Y-15731590D02*
X11293292Y-15722067D01*
X11312340Y-15712543D01*
X11340911Y-15712543D01*
X11359959Y-15722067D01*
X11369483Y-15741114D01*
X11369483Y-15845876D01*
X11369483Y-15741114D02*
X11379007Y-15722067D01*
X11398054Y-15712543D01*
X11426626Y-15712543D01*
X11445673Y-15722067D01*
X11455197Y-15741114D01*
X11455197Y-15845876D01*
X11845673Y-15636352D02*
X11674245Y-15893495D01*
X12102816Y-15645876D02*
X12121864Y-15645876D01*
X12140911Y-15655400D01*
X12150435Y-15664924D01*
X12159959Y-15683971D01*
X12169483Y-15722067D01*
X12169483Y-15769686D01*
X12159959Y-15807781D01*
X12150435Y-15826828D01*
X12140911Y-15836352D01*
X12121864Y-15845876D01*
X12102816Y-15845876D01*
X12083768Y-15836352D01*
X12074245Y-15826828D01*
X12064721Y-15807781D01*
X12055197Y-15769686D01*
X12055197Y-15722067D01*
X12064721Y-15683971D01*
X12074245Y-15664924D01*
X12083768Y-15655400D01*
X12102816Y-15645876D01*
X12255197Y-15826828D02*
X12264721Y-15836352D01*
X12255197Y-15845876D01*
X12245673Y-15836352D01*
X12255197Y-15826828D01*
X12255197Y-15845876D01*
X12388530Y-15645876D02*
X12407578Y-15645876D01*
X12426626Y-15655400D01*
X12436149Y-15664924D01*
X12445673Y-15683971D01*
X12455197Y-15722067D01*
X12455197Y-15769686D01*
X12445673Y-15807781D01*
X12436149Y-15826828D01*
X12426626Y-15836352D01*
X12407578Y-15845876D01*
X12388530Y-15845876D01*
X12369483Y-15836352D01*
X12359959Y-15826828D01*
X12350435Y-15807781D01*
X12340911Y-15769686D01*
X12340911Y-15722067D01*
X12350435Y-15683971D01*
X12359959Y-15664924D01*
X12369483Y-15655400D01*
X12388530Y-15645876D01*
X12579007Y-15645876D02*
X12598054Y-15645876D01*
X12617102Y-15655400D01*
X12626626Y-15664924D01*
X12636149Y-15683971D01*
X12645673Y-15722067D01*
X12645673Y-15769686D01*
X12636149Y-15807781D01*
X12626626Y-15826828D01*
X12617102Y-15836352D01*
X12598054Y-15845876D01*
X12579007Y-15845876D01*
X12559959Y-15836352D01*
X12550435Y-15826828D01*
X12540911Y-15807781D01*
X12531388Y-15769686D01*
X12531388Y-15722067D01*
X12540911Y-15683971D01*
X12550435Y-15664924D01*
X12559959Y-15655400D01*
X12579007Y-15645876D01*
X12712340Y-15645876D02*
X12845673Y-15645876D01*
X12759959Y-15845876D01*
X12931388Y-15845876D02*
X12969483Y-15845876D01*
X12988530Y-15836352D01*
X12998054Y-15826828D01*
X13017102Y-15798257D01*
X13026626Y-15760162D01*
X13026626Y-15683971D01*
X13017102Y-15664924D01*
X13007578Y-15655400D01*
X12988530Y-15645876D01*
X12950435Y-15645876D01*
X12931388Y-15655400D01*
X12921864Y-15664924D01*
X12912340Y-15683971D01*
X12912340Y-15731590D01*
X12921864Y-15750638D01*
X12931388Y-15760162D01*
X12950435Y-15769686D01*
X12988530Y-15769686D01*
X13007578Y-15760162D01*
X13017102Y-15750638D01*
X13026626Y-15731590D01*
X13102816Y-15645876D02*
X13102816Y-15683971D01*
X13179007Y-15645876D02*
X13179007Y-15683971D01*
X13474245Y-15922067D02*
X13464721Y-15912543D01*
X13445673Y-15883971D01*
X13436149Y-15864924D01*
X13426626Y-15836352D01*
X13417102Y-15788733D01*
X13417102Y-15750638D01*
X13426626Y-15703019D01*
X13436149Y-15674448D01*
X13445673Y-15655400D01*
X13464721Y-15626828D01*
X13474245Y-15617305D01*
X13540911Y-15664924D02*
X13550435Y-15655400D01*
X13569483Y-15645876D01*
X13617102Y-15645876D01*
X13636149Y-15655400D01*
X13645673Y-15664924D01*
X13655197Y-15683971D01*
X13655197Y-15703019D01*
X13645673Y-15731590D01*
X13531388Y-15845876D01*
X13655197Y-15845876D01*
X13836149Y-15645876D02*
X13740911Y-15645876D01*
X13731388Y-15741114D01*
X13740911Y-15731590D01*
X13759959Y-15722067D01*
X13807578Y-15722067D01*
X13826626Y-15731590D01*
X13836149Y-15741114D01*
X13845673Y-15760162D01*
X13845673Y-15807781D01*
X13836149Y-15826828D01*
X13826626Y-15836352D01*
X13807578Y-15845876D01*
X13759959Y-15845876D01*
X13740911Y-15836352D01*
X13731388Y-15826828D01*
X14083768Y-15845876D02*
X14083768Y-15645876D01*
X14169483Y-15845876D02*
X14169483Y-15741114D01*
X14159959Y-15722067D01*
X14140911Y-15712543D01*
X14112340Y-15712543D01*
X14093292Y-15722067D01*
X14083768Y-15731590D01*
X14293292Y-15845876D02*
X14274245Y-15836352D01*
X14264721Y-15826828D01*
X14255197Y-15807781D01*
X14255197Y-15750638D01*
X14264721Y-15731590D01*
X14274245Y-15722067D01*
X14293292Y-15712543D01*
X14321864Y-15712543D01*
X14340911Y-15722067D01*
X14350435Y-15731590D01*
X14359959Y-15750638D01*
X14359959Y-15807781D01*
X14350435Y-15826828D01*
X14340911Y-15836352D01*
X14321864Y-15845876D01*
X14293292Y-15845876D01*
X14474245Y-15845876D02*
X14455197Y-15836352D01*
X14445673Y-15817305D01*
X14445673Y-15645876D01*
X14626626Y-15836352D02*
X14607578Y-15845876D01*
X14569483Y-15845876D01*
X14550435Y-15836352D01*
X14540911Y-15817305D01*
X14540911Y-15741114D01*
X14550435Y-15722067D01*
X14569483Y-15712543D01*
X14607578Y-15712543D01*
X14626626Y-15722067D01*
X14636149Y-15741114D01*
X14636149Y-15760162D01*
X14540911Y-15779209D01*
X14712340Y-15836352D02*
X14731388Y-15845876D01*
X14769483Y-15845876D01*
X14788530Y-15836352D01*
X14798054Y-15817305D01*
X14798054Y-15807781D01*
X14788530Y-15788733D01*
X14769483Y-15779209D01*
X14740911Y-15779209D01*
X14721864Y-15769686D01*
X14712340Y-15750638D01*
X14712340Y-15741114D01*
X14721864Y-15722067D01*
X14740911Y-15712543D01*
X14769483Y-15712543D01*
X14788530Y-15722067D01*
X14864721Y-15922067D02*
X14874245Y-15912543D01*
X14893292Y-15883971D01*
X14902816Y-15864924D01*
X14912340Y-15836352D01*
X14921864Y-15788733D01*
X14921864Y-15750638D01*
X14912340Y-15703019D01*
X14902816Y-15674448D01*
X14893292Y-15655400D01*
X14874245Y-15626828D01*
X14864721Y-15617305D01*
D13*
X9902340Y-16019400D02*
G75*
G03*
X9902340Y-16019400I-20000J0D01*
G01*
D11*
X10198054Y-15909876D02*
X10217102Y-15909876D01*
X10236150Y-15919400D01*
X10245673Y-15928924D01*
X10255197Y-15947971D01*
X10264721Y-15986067D01*
X10264721Y-16033686D01*
X10255197Y-16071781D01*
X10245673Y-16090828D01*
X10236150Y-16100352D01*
X10217102Y-16109876D01*
X10198054Y-16109876D01*
X10179007Y-16100352D01*
X10169483Y-16090828D01*
X10159959Y-16071781D01*
X10150435Y-16033686D01*
X10150435Y-15986067D01*
X10159959Y-15947971D01*
X10169483Y-15928924D01*
X10179007Y-15919400D01*
X10198054Y-15909876D01*
X10350435Y-16090828D02*
X10359959Y-16100352D01*
X10350435Y-16109876D01*
X10340911Y-16100352D01*
X10350435Y-16090828D01*
X10350435Y-16109876D01*
X10531388Y-15976543D02*
X10531388Y-16109876D01*
X10483769Y-15900352D02*
X10436150Y-16043209D01*
X10559959Y-16043209D01*
X10674245Y-15909876D02*
X10693292Y-15909876D01*
X10712340Y-15919400D01*
X10721864Y-15928924D01*
X10731388Y-15947971D01*
X10740911Y-15986067D01*
X10740911Y-16033686D01*
X10731388Y-16071781D01*
X10721864Y-16090828D01*
X10712340Y-16100352D01*
X10693292Y-16109876D01*
X10674245Y-16109876D01*
X10655197Y-16100352D01*
X10645673Y-16090828D01*
X10636150Y-16071781D01*
X10626626Y-16033686D01*
X10626626Y-15986067D01*
X10636150Y-15947971D01*
X10645673Y-15928924D01*
X10655197Y-15919400D01*
X10674245Y-15909876D01*
X10864721Y-15909876D02*
X10883769Y-15909876D01*
X10902816Y-15919400D01*
X10912340Y-15928924D01*
X10921864Y-15947971D01*
X10931388Y-15986067D01*
X10931388Y-16033686D01*
X10921864Y-16071781D01*
X10912340Y-16090828D01*
X10902816Y-16100352D01*
X10883769Y-16109876D01*
X10864721Y-16109876D01*
X10845673Y-16100352D01*
X10836150Y-16090828D01*
X10826626Y-16071781D01*
X10817102Y-16033686D01*
X10817102Y-15986067D01*
X10826626Y-15947971D01*
X10836150Y-15928924D01*
X10845673Y-15919400D01*
X10864721Y-15909876D01*
X11017102Y-16109876D02*
X11017102Y-15976543D01*
X11017102Y-15995590D02*
X11026626Y-15986067D01*
X11045673Y-15976543D01*
X11074245Y-15976543D01*
X11093292Y-15986067D01*
X11102816Y-16005114D01*
X11102816Y-16109876D01*
X11102816Y-16005114D02*
X11112340Y-15986067D01*
X11131388Y-15976543D01*
X11159959Y-15976543D01*
X11179007Y-15986067D01*
X11188530Y-16005114D01*
X11188530Y-16109876D01*
X11283768Y-16109876D02*
X11283768Y-15976543D01*
X11283768Y-15995590D02*
X11293292Y-15986067D01*
X11312340Y-15976543D01*
X11340911Y-15976543D01*
X11359959Y-15986067D01*
X11369483Y-16005114D01*
X11369483Y-16109876D01*
X11369483Y-16005114D02*
X11379007Y-15986067D01*
X11398054Y-15976543D01*
X11426626Y-15976543D01*
X11445673Y-15986067D01*
X11455197Y-16005114D01*
X11455197Y-16109876D01*
X11845673Y-15900352D02*
X11674245Y-16157495D01*
X12102816Y-15909876D02*
X12121864Y-15909876D01*
X12140911Y-15919400D01*
X12150435Y-15928924D01*
X12159959Y-15947971D01*
X12169483Y-15986067D01*
X12169483Y-16033686D01*
X12159959Y-16071781D01*
X12150435Y-16090828D01*
X12140911Y-16100352D01*
X12121864Y-16109876D01*
X12102816Y-16109876D01*
X12083768Y-16100352D01*
X12074245Y-16090828D01*
X12064721Y-16071781D01*
X12055197Y-16033686D01*
X12055197Y-15986067D01*
X12064721Y-15947971D01*
X12074245Y-15928924D01*
X12083768Y-15919400D01*
X12102816Y-15909876D01*
X12255197Y-16090828D02*
X12264721Y-16100352D01*
X12255197Y-16109876D01*
X12245673Y-16100352D01*
X12255197Y-16090828D01*
X12255197Y-16109876D01*
X12388530Y-15909876D02*
X12407578Y-15909876D01*
X12426626Y-15919400D01*
X12436149Y-15928924D01*
X12445673Y-15947971D01*
X12455197Y-15986067D01*
X12455197Y-16033686D01*
X12445673Y-16071781D01*
X12436149Y-16090828D01*
X12426626Y-16100352D01*
X12407578Y-16109876D01*
X12388530Y-16109876D01*
X12369483Y-16100352D01*
X12359959Y-16090828D01*
X12350435Y-16071781D01*
X12340911Y-16033686D01*
X12340911Y-15986067D01*
X12350435Y-15947971D01*
X12359959Y-15928924D01*
X12369483Y-15919400D01*
X12388530Y-15909876D01*
X12645673Y-16109876D02*
X12531388Y-16109876D01*
X12588530Y-16109876D02*
X12588530Y-15909876D01*
X12569483Y-15938448D01*
X12550435Y-15957495D01*
X12531388Y-15967019D01*
X12826626Y-15909876D02*
X12731388Y-15909876D01*
X12721864Y-16005114D01*
X12731388Y-15995590D01*
X12750435Y-15986067D01*
X12798054Y-15986067D01*
X12817102Y-15995590D01*
X12826626Y-16005114D01*
X12836149Y-16024162D01*
X12836149Y-16071781D01*
X12826626Y-16090828D01*
X12817102Y-16100352D01*
X12798054Y-16109876D01*
X12750435Y-16109876D01*
X12731388Y-16100352D01*
X12721864Y-16090828D01*
X12902816Y-15909876D02*
X13036149Y-15909876D01*
X12950435Y-16109876D01*
X13102816Y-15909876D02*
X13102816Y-15947971D01*
X13179007Y-15909876D02*
X13179007Y-15947971D01*
X13474245Y-16186067D02*
X13464721Y-16176543D01*
X13445673Y-16147971D01*
X13436149Y-16128924D01*
X13426626Y-16100352D01*
X13417102Y-16052733D01*
X13417102Y-16014638D01*
X13426626Y-15967019D01*
X13436149Y-15938448D01*
X13445673Y-15919400D01*
X13464721Y-15890828D01*
X13474245Y-15881305D01*
X13540911Y-15928924D02*
X13550435Y-15919400D01*
X13569483Y-15909876D01*
X13617102Y-15909876D01*
X13636149Y-15919400D01*
X13645673Y-15928924D01*
X13655197Y-15947971D01*
X13655197Y-15967019D01*
X13645673Y-15995590D01*
X13531388Y-16109876D01*
X13655197Y-16109876D01*
X13721864Y-15909876D02*
X13845673Y-15909876D01*
X13779007Y-15986067D01*
X13807578Y-15986067D01*
X13826626Y-15995590D01*
X13836149Y-16005114D01*
X13845673Y-16024162D01*
X13845673Y-16071781D01*
X13836149Y-16090828D01*
X13826626Y-16100352D01*
X13807578Y-16109876D01*
X13750435Y-16109876D01*
X13731388Y-16100352D01*
X13721864Y-16090828D01*
X13969483Y-15909876D02*
X13988530Y-15909876D01*
X14007578Y-15919400D01*
X14017102Y-15928924D01*
X14026626Y-15947971D01*
X14036149Y-15986067D01*
X14036149Y-16033686D01*
X14026626Y-16071781D01*
X14017102Y-16090828D01*
X14007578Y-16100352D01*
X13988530Y-16109876D01*
X13969483Y-16109876D01*
X13950435Y-16100352D01*
X13940911Y-16090828D01*
X13931388Y-16071781D01*
X13921864Y-16033686D01*
X13921864Y-15986067D01*
X13931388Y-15947971D01*
X13940911Y-15928924D01*
X13950435Y-15919400D01*
X13969483Y-15909876D01*
X14274245Y-16109876D02*
X14274245Y-15909876D01*
X14359959Y-16109876D02*
X14359959Y-16005114D01*
X14350435Y-15986067D01*
X14331388Y-15976543D01*
X14302816Y-15976543D01*
X14283768Y-15986067D01*
X14274245Y-15995590D01*
X14483768Y-16109876D02*
X14464721Y-16100352D01*
X14455197Y-16090828D01*
X14445673Y-16071781D01*
X14445673Y-16014638D01*
X14455197Y-15995590D01*
X14464721Y-15986067D01*
X14483768Y-15976543D01*
X14512340Y-15976543D01*
X14531388Y-15986067D01*
X14540911Y-15995590D01*
X14550435Y-16014638D01*
X14550435Y-16071781D01*
X14540911Y-16090828D01*
X14531388Y-16100352D01*
X14512340Y-16109876D01*
X14483768Y-16109876D01*
X14664721Y-16109876D02*
X14645673Y-16100352D01*
X14636149Y-16081305D01*
X14636149Y-15909876D01*
X14817102Y-16100352D02*
X14798054Y-16109876D01*
X14759959Y-16109876D01*
X14740911Y-16100352D01*
X14731388Y-16081305D01*
X14731388Y-16005114D01*
X14740911Y-15986067D01*
X14759959Y-15976543D01*
X14798054Y-15976543D01*
X14817102Y-15986067D01*
X14826626Y-16005114D01*
X14826626Y-16024162D01*
X14731388Y-16043209D01*
X14902816Y-16100352D02*
X14921864Y-16109876D01*
X14959959Y-16109876D01*
X14979007Y-16100352D01*
X14988530Y-16081305D01*
X14988530Y-16071781D01*
X14979007Y-16052733D01*
X14959959Y-16043209D01*
X14931388Y-16043209D01*
X14912340Y-16033686D01*
X14902816Y-16014638D01*
X14902816Y-16005114D01*
X14912340Y-15986067D01*
X14931388Y-15976543D01*
X14959959Y-15976543D01*
X14979007Y-15986067D01*
X15055197Y-16186067D02*
X15064721Y-16176543D01*
X15083768Y-16147971D01*
X15093292Y-16128924D01*
X15102816Y-16100352D01*
X15112340Y-16052733D01*
X15112340Y-16014638D01*
X15102816Y-15967019D01*
X15093292Y-15938448D01*
X15083768Y-15919400D01*
X15064721Y-15890828D01*
X15055197Y-15881305D01*
D14*
X9872340Y-16253400D02*
X9872340Y-16313400D01*
X9842340Y-16283400D02*
X9902340Y-16283400D01*
D11*
X10198054Y-16173876D02*
X10217102Y-16173876D01*
X10236150Y-16183400D01*
X10245673Y-16192924D01*
X10255197Y-16211971D01*
X10264721Y-16250067D01*
X10264721Y-16297686D01*
X10255197Y-16335781D01*
X10245673Y-16354828D01*
X10236150Y-16364352D01*
X10217102Y-16373876D01*
X10198054Y-16373876D01*
X10179007Y-16364352D01*
X10169483Y-16354828D01*
X10159959Y-16335781D01*
X10150435Y-16297686D01*
X10150435Y-16250067D01*
X10159959Y-16211971D01*
X10169483Y-16192924D01*
X10179007Y-16183400D01*
X10198054Y-16173876D01*
X10350435Y-16354828D02*
X10359959Y-16364352D01*
X10350435Y-16373876D01*
X10340911Y-16364352D01*
X10350435Y-16354828D01*
X10350435Y-16373876D01*
X10531388Y-16173876D02*
X10493292Y-16173876D01*
X10474245Y-16183400D01*
X10464721Y-16192924D01*
X10445673Y-16221495D01*
X10436150Y-16259590D01*
X10436150Y-16335781D01*
X10445673Y-16354828D01*
X10455197Y-16364352D01*
X10474245Y-16373876D01*
X10512340Y-16373876D01*
X10531388Y-16364352D01*
X10540911Y-16354828D01*
X10550435Y-16335781D01*
X10550435Y-16288162D01*
X10540911Y-16269114D01*
X10531388Y-16259590D01*
X10512340Y-16250067D01*
X10474245Y-16250067D01*
X10455197Y-16259590D01*
X10445673Y-16269114D01*
X10436150Y-16288162D01*
X10674245Y-16173876D02*
X10693292Y-16173876D01*
X10712340Y-16183400D01*
X10721864Y-16192924D01*
X10731388Y-16211971D01*
X10740911Y-16250067D01*
X10740911Y-16297686D01*
X10731388Y-16335781D01*
X10721864Y-16354828D01*
X10712340Y-16364352D01*
X10693292Y-16373876D01*
X10674245Y-16373876D01*
X10655197Y-16364352D01*
X10645673Y-16354828D01*
X10636150Y-16335781D01*
X10626626Y-16297686D01*
X10626626Y-16250067D01*
X10636150Y-16211971D01*
X10645673Y-16192924D01*
X10655197Y-16183400D01*
X10674245Y-16173876D01*
X10864721Y-16173876D02*
X10883769Y-16173876D01*
X10902816Y-16183400D01*
X10912340Y-16192924D01*
X10921864Y-16211971D01*
X10931388Y-16250067D01*
X10931388Y-16297686D01*
X10921864Y-16335781D01*
X10912340Y-16354828D01*
X10902816Y-16364352D01*
X10883769Y-16373876D01*
X10864721Y-16373876D01*
X10845673Y-16364352D01*
X10836150Y-16354828D01*
X10826626Y-16335781D01*
X10817102Y-16297686D01*
X10817102Y-16250067D01*
X10826626Y-16211971D01*
X10836150Y-16192924D01*
X10845673Y-16183400D01*
X10864721Y-16173876D01*
X11017102Y-16373876D02*
X11017102Y-16240543D01*
X11017102Y-16259590D02*
X11026626Y-16250067D01*
X11045673Y-16240543D01*
X11074245Y-16240543D01*
X11093292Y-16250067D01*
X11102816Y-16269114D01*
X11102816Y-16373876D01*
X11102816Y-16269114D02*
X11112340Y-16250067D01*
X11131388Y-16240543D01*
X11159959Y-16240543D01*
X11179007Y-16250067D01*
X11188530Y-16269114D01*
X11188530Y-16373876D01*
X11283768Y-16373876D02*
X11283768Y-16240543D01*
X11283768Y-16259590D02*
X11293292Y-16250067D01*
X11312340Y-16240543D01*
X11340911Y-16240543D01*
X11359959Y-16250067D01*
X11369483Y-16269114D01*
X11369483Y-16373876D01*
X11369483Y-16269114D02*
X11379007Y-16250067D01*
X11398054Y-16240543D01*
X11426626Y-16240543D01*
X11445673Y-16250067D01*
X11455197Y-16269114D01*
X11455197Y-16373876D01*
X11845673Y-16164352D02*
X11674245Y-16421495D01*
X12102816Y-16173876D02*
X12121864Y-16173876D01*
X12140911Y-16183400D01*
X12150435Y-16192924D01*
X12159959Y-16211971D01*
X12169483Y-16250067D01*
X12169483Y-16297686D01*
X12159959Y-16335781D01*
X12150435Y-16354828D01*
X12140911Y-16364352D01*
X12121864Y-16373876D01*
X12102816Y-16373876D01*
X12083768Y-16364352D01*
X12074245Y-16354828D01*
X12064721Y-16335781D01*
X12055197Y-16297686D01*
X12055197Y-16250067D01*
X12064721Y-16211971D01*
X12074245Y-16192924D01*
X12083768Y-16183400D01*
X12102816Y-16173876D01*
X12255197Y-16354828D02*
X12264721Y-16364352D01*
X12255197Y-16373876D01*
X12245673Y-16364352D01*
X12255197Y-16354828D01*
X12255197Y-16373876D01*
X12388530Y-16173876D02*
X12407578Y-16173876D01*
X12426626Y-16183400D01*
X12436149Y-16192924D01*
X12445673Y-16211971D01*
X12455197Y-16250067D01*
X12455197Y-16297686D01*
X12445673Y-16335781D01*
X12436149Y-16354828D01*
X12426626Y-16364352D01*
X12407578Y-16373876D01*
X12388530Y-16373876D01*
X12369483Y-16364352D01*
X12359959Y-16354828D01*
X12350435Y-16335781D01*
X12340911Y-16297686D01*
X12340911Y-16250067D01*
X12350435Y-16211971D01*
X12359959Y-16192924D01*
X12369483Y-16183400D01*
X12388530Y-16173876D01*
X12531388Y-16192924D02*
X12540911Y-16183400D01*
X12559959Y-16173876D01*
X12607578Y-16173876D01*
X12626626Y-16183400D01*
X12636149Y-16192924D01*
X12645673Y-16211971D01*
X12645673Y-16231019D01*
X12636149Y-16259590D01*
X12521864Y-16373876D01*
X12645673Y-16373876D01*
X12712340Y-16173876D02*
X12836149Y-16173876D01*
X12769483Y-16250067D01*
X12798054Y-16250067D01*
X12817102Y-16259590D01*
X12826626Y-16269114D01*
X12836149Y-16288162D01*
X12836149Y-16335781D01*
X12826626Y-16354828D01*
X12817102Y-16364352D01*
X12798054Y-16373876D01*
X12740911Y-16373876D01*
X12721864Y-16364352D01*
X12712340Y-16354828D01*
X13007578Y-16173876D02*
X12969483Y-16173876D01*
X12950435Y-16183400D01*
X12940911Y-16192924D01*
X12921864Y-16221495D01*
X12912340Y-16259590D01*
X12912340Y-16335781D01*
X12921864Y-16354828D01*
X12931388Y-16364352D01*
X12950435Y-16373876D01*
X12988530Y-16373876D01*
X13007578Y-16364352D01*
X13017102Y-16354828D01*
X13026626Y-16335781D01*
X13026626Y-16288162D01*
X13017102Y-16269114D01*
X13007578Y-16259590D01*
X12988530Y-16250067D01*
X12950435Y-16250067D01*
X12931388Y-16259590D01*
X12921864Y-16269114D01*
X12912340Y-16288162D01*
X13102816Y-16173876D02*
X13102816Y-16211971D01*
X13179007Y-16173876D02*
X13179007Y-16211971D01*
X13474245Y-16450067D02*
X13464721Y-16440543D01*
X13445673Y-16411971D01*
X13436149Y-16392924D01*
X13426626Y-16364352D01*
X13417102Y-16316733D01*
X13417102Y-16278638D01*
X13426626Y-16231019D01*
X13436149Y-16202448D01*
X13445673Y-16183400D01*
X13464721Y-16154828D01*
X13474245Y-16145305D01*
X13588530Y-16173876D02*
X13607578Y-16173876D01*
X13626626Y-16183400D01*
X13636149Y-16192924D01*
X13645673Y-16211971D01*
X13655197Y-16250067D01*
X13655197Y-16297686D01*
X13645673Y-16335781D01*
X13636149Y-16354828D01*
X13626626Y-16364352D01*
X13607578Y-16373876D01*
X13588530Y-16373876D01*
X13569483Y-16364352D01*
X13559959Y-16354828D01*
X13550435Y-16335781D01*
X13540911Y-16297686D01*
X13540911Y-16250067D01*
X13550435Y-16211971D01*
X13559959Y-16192924D01*
X13569483Y-16183400D01*
X13588530Y-16173876D01*
X13893292Y-16373876D02*
X13893292Y-16173876D01*
X13979007Y-16373876D02*
X13979007Y-16269114D01*
X13969483Y-16250067D01*
X13950435Y-16240543D01*
X13921864Y-16240543D01*
X13902816Y-16250067D01*
X13893292Y-16259590D01*
X14102816Y-16373876D02*
X14083768Y-16364352D01*
X14074245Y-16354828D01*
X14064721Y-16335781D01*
X14064721Y-16278638D01*
X14074245Y-16259590D01*
X14083768Y-16250067D01*
X14102816Y-16240543D01*
X14131388Y-16240543D01*
X14150435Y-16250067D01*
X14159959Y-16259590D01*
X14169483Y-16278638D01*
X14169483Y-16335781D01*
X14159959Y-16354828D01*
X14150435Y-16364352D01*
X14131388Y-16373876D01*
X14102816Y-16373876D01*
X14283768Y-16373876D02*
X14264721Y-16364352D01*
X14255197Y-16345305D01*
X14255197Y-16173876D01*
X14436149Y-16364352D02*
X14417102Y-16373876D01*
X14379007Y-16373876D01*
X14359959Y-16364352D01*
X14350435Y-16345305D01*
X14350435Y-16269114D01*
X14359959Y-16250067D01*
X14379007Y-16240543D01*
X14417102Y-16240543D01*
X14436149Y-16250067D01*
X14445673Y-16269114D01*
X14445673Y-16288162D01*
X14350435Y-16307209D01*
X14521864Y-16364352D02*
X14540911Y-16373876D01*
X14579007Y-16373876D01*
X14598054Y-16364352D01*
X14607578Y-16345305D01*
X14607578Y-16335781D01*
X14598054Y-16316733D01*
X14579007Y-16307209D01*
X14550435Y-16307209D01*
X14531388Y-16297686D01*
X14521864Y-16278638D01*
X14521864Y-16269114D01*
X14531388Y-16250067D01*
X14550435Y-16240543D01*
X14579007Y-16240543D01*
X14598054Y-16250067D01*
X14845673Y-16297686D02*
X14998054Y-16297686D01*
X14921864Y-16373876D02*
X14921864Y-16221495D01*
X15274245Y-16259590D02*
X15255197Y-16250067D01*
X15245673Y-16240543D01*
X15236149Y-16221495D01*
X15236149Y-16211971D01*
X15245673Y-16192924D01*
X15255197Y-16183400D01*
X15274245Y-16173876D01*
X15312340Y-16173876D01*
X15331388Y-16183400D01*
X15340911Y-16192924D01*
X15350435Y-16211971D01*
X15350435Y-16221495D01*
X15340911Y-16240543D01*
X15331388Y-16250067D01*
X15312340Y-16259590D01*
X15274245Y-16259590D01*
X15255197Y-16269114D01*
X15245673Y-16278638D01*
X15236149Y-16297686D01*
X15236149Y-16335781D01*
X15245673Y-16354828D01*
X15255197Y-16364352D01*
X15274245Y-16373876D01*
X15312340Y-16373876D01*
X15331388Y-16364352D01*
X15340911Y-16354828D01*
X15350435Y-16335781D01*
X15350435Y-16297686D01*
X15340911Y-16278638D01*
X15331388Y-16269114D01*
X15312340Y-16259590D01*
X15579007Y-16364352D02*
X15598054Y-16373876D01*
X15636149Y-16373876D01*
X15655197Y-16364352D01*
X15664721Y-16345305D01*
X15664721Y-16335781D01*
X15655197Y-16316733D01*
X15636149Y-16307209D01*
X15607578Y-16307209D01*
X15588530Y-16297686D01*
X15579007Y-16278638D01*
X15579007Y-16269114D01*
X15588530Y-16250067D01*
X15607578Y-16240543D01*
X15636149Y-16240543D01*
X15655197Y-16250067D01*
X15779007Y-16373876D02*
X15759959Y-16364352D01*
X15750435Y-16345305D01*
X15750435Y-16173876D01*
X15883768Y-16373876D02*
X15864721Y-16364352D01*
X15855197Y-16354828D01*
X15845673Y-16335781D01*
X15845673Y-16278638D01*
X15855197Y-16259590D01*
X15864721Y-16250067D01*
X15883768Y-16240543D01*
X15912340Y-16240543D01*
X15931388Y-16250067D01*
X15940911Y-16259590D01*
X15950435Y-16278638D01*
X15950435Y-16335781D01*
X15940911Y-16354828D01*
X15931388Y-16364352D01*
X15912340Y-16373876D01*
X15883768Y-16373876D01*
X16007578Y-16240543D02*
X16083768Y-16240543D01*
X16036149Y-16173876D02*
X16036149Y-16345305D01*
X16045673Y-16364352D01*
X16064721Y-16373876D01*
X16083768Y-16373876D01*
X16140911Y-16364352D02*
X16159959Y-16373876D01*
X16198054Y-16373876D01*
X16217102Y-16364352D01*
X16226626Y-16345305D01*
X16226626Y-16335781D01*
X16217102Y-16316733D01*
X16198054Y-16307209D01*
X16169483Y-16307209D01*
X16150435Y-16297686D01*
X16140911Y-16278638D01*
X16140911Y-16269114D01*
X16150435Y-16250067D01*
X16169483Y-16240543D01*
X16198054Y-16240543D01*
X16217102Y-16250067D01*
X16293292Y-16450067D02*
X16302816Y-16440543D01*
X16321864Y-16411971D01*
X16331388Y-16392924D01*
X16340911Y-16364352D01*
X16350435Y-16316733D01*
X16350435Y-16278638D01*
X16340911Y-16231019D01*
X16331388Y-16202448D01*
X16321864Y-16183400D01*
X16302816Y-16154828D01*
X16293292Y-16145305D01*
D15*
X9890625Y-16575684D02*
X9890625Y-16519115D01*
X9834056Y-16519115D01*
X9834056Y-16575684D01*
X9890625Y-16575684D01*
D11*
X10198054Y-16437876D02*
X10217102Y-16437876D01*
X10236150Y-16447400D01*
X10245673Y-16456924D01*
X10255197Y-16475971D01*
X10264721Y-16514067D01*
X10264721Y-16561686D01*
X10255197Y-16599781D01*
X10245673Y-16618828D01*
X10236150Y-16628352D01*
X10217102Y-16637876D01*
X10198054Y-16637876D01*
X10179007Y-16628352D01*
X10169483Y-16618828D01*
X10159959Y-16599781D01*
X10150435Y-16561686D01*
X10150435Y-16514067D01*
X10159959Y-16475971D01*
X10169483Y-16456924D01*
X10179007Y-16447400D01*
X10198054Y-16437876D01*
X10350435Y-16618828D02*
X10359959Y-16628352D01*
X10350435Y-16637876D01*
X10340911Y-16628352D01*
X10350435Y-16618828D01*
X10350435Y-16637876D01*
X10474245Y-16523590D02*
X10455197Y-16514067D01*
X10445673Y-16504543D01*
X10436150Y-16485495D01*
X10436150Y-16475971D01*
X10445673Y-16456924D01*
X10455197Y-16447400D01*
X10474245Y-16437876D01*
X10512340Y-16437876D01*
X10531388Y-16447400D01*
X10540911Y-16456924D01*
X10550435Y-16475971D01*
X10550435Y-16485495D01*
X10540911Y-16504543D01*
X10531388Y-16514067D01*
X10512340Y-16523590D01*
X10474245Y-16523590D01*
X10455197Y-16533114D01*
X10445673Y-16542638D01*
X10436150Y-16561686D01*
X10436150Y-16599781D01*
X10445673Y-16618828D01*
X10455197Y-16628352D01*
X10474245Y-16637876D01*
X10512340Y-16637876D01*
X10531388Y-16628352D01*
X10540911Y-16618828D01*
X10550435Y-16599781D01*
X10550435Y-16561686D01*
X10540911Y-16542638D01*
X10531388Y-16533114D01*
X10512340Y-16523590D01*
X10674245Y-16437876D02*
X10693292Y-16437876D01*
X10712340Y-16447400D01*
X10721864Y-16456924D01*
X10731388Y-16475971D01*
X10740911Y-16514067D01*
X10740911Y-16561686D01*
X10731388Y-16599781D01*
X10721864Y-16618828D01*
X10712340Y-16628352D01*
X10693292Y-16637876D01*
X10674245Y-16637876D01*
X10655197Y-16628352D01*
X10645673Y-16618828D01*
X10636150Y-16599781D01*
X10626626Y-16561686D01*
X10626626Y-16514067D01*
X10636150Y-16475971D01*
X10645673Y-16456924D01*
X10655197Y-16447400D01*
X10674245Y-16437876D01*
X10864721Y-16437876D02*
X10883769Y-16437876D01*
X10902816Y-16447400D01*
X10912340Y-16456924D01*
X10921864Y-16475971D01*
X10931388Y-16514067D01*
X10931388Y-16561686D01*
X10921864Y-16599781D01*
X10912340Y-16618828D01*
X10902816Y-16628352D01*
X10883769Y-16637876D01*
X10864721Y-16637876D01*
X10845673Y-16628352D01*
X10836150Y-16618828D01*
X10826626Y-16599781D01*
X10817102Y-16561686D01*
X10817102Y-16514067D01*
X10826626Y-16475971D01*
X10836150Y-16456924D01*
X10845673Y-16447400D01*
X10864721Y-16437876D01*
X11017102Y-16637876D02*
X11017102Y-16504543D01*
X11017102Y-16523590D02*
X11026626Y-16514067D01*
X11045673Y-16504543D01*
X11074245Y-16504543D01*
X11093292Y-16514067D01*
X11102816Y-16533114D01*
X11102816Y-16637876D01*
X11102816Y-16533114D02*
X11112340Y-16514067D01*
X11131388Y-16504543D01*
X11159959Y-16504543D01*
X11179007Y-16514067D01*
X11188530Y-16533114D01*
X11188530Y-16637876D01*
X11283768Y-16637876D02*
X11283768Y-16504543D01*
X11283768Y-16523590D02*
X11293292Y-16514067D01*
X11312340Y-16504543D01*
X11340911Y-16504543D01*
X11359959Y-16514067D01*
X11369483Y-16533114D01*
X11369483Y-16637876D01*
X11369483Y-16533114D02*
X11379007Y-16514067D01*
X11398054Y-16504543D01*
X11426626Y-16504543D01*
X11445673Y-16514067D01*
X11455197Y-16533114D01*
X11455197Y-16637876D01*
X11845673Y-16428352D02*
X11674245Y-16685495D01*
X12102816Y-16437876D02*
X12121864Y-16437876D01*
X12140911Y-16447400D01*
X12150435Y-16456924D01*
X12159959Y-16475971D01*
X12169483Y-16514067D01*
X12169483Y-16561686D01*
X12159959Y-16599781D01*
X12150435Y-16618828D01*
X12140911Y-16628352D01*
X12121864Y-16637876D01*
X12102816Y-16637876D01*
X12083768Y-16628352D01*
X12074245Y-16618828D01*
X12064721Y-16599781D01*
X12055197Y-16561686D01*
X12055197Y-16514067D01*
X12064721Y-16475971D01*
X12074245Y-16456924D01*
X12083768Y-16447400D01*
X12102816Y-16437876D01*
X12255197Y-16618828D02*
X12264721Y-16628352D01*
X12255197Y-16637876D01*
X12245673Y-16628352D01*
X12255197Y-16618828D01*
X12255197Y-16637876D01*
X12388530Y-16437876D02*
X12407578Y-16437876D01*
X12426626Y-16447400D01*
X12436149Y-16456924D01*
X12445673Y-16475971D01*
X12455197Y-16514067D01*
X12455197Y-16561686D01*
X12445673Y-16599781D01*
X12436149Y-16618828D01*
X12426626Y-16628352D01*
X12407578Y-16637876D01*
X12388530Y-16637876D01*
X12369483Y-16628352D01*
X12359959Y-16618828D01*
X12350435Y-16599781D01*
X12340911Y-16561686D01*
X12340911Y-16514067D01*
X12350435Y-16475971D01*
X12359959Y-16456924D01*
X12369483Y-16447400D01*
X12388530Y-16437876D01*
X12521864Y-16437876D02*
X12645673Y-16437876D01*
X12579007Y-16514067D01*
X12607578Y-16514067D01*
X12626626Y-16523590D01*
X12636149Y-16533114D01*
X12645673Y-16552162D01*
X12645673Y-16599781D01*
X12636149Y-16618828D01*
X12626626Y-16628352D01*
X12607578Y-16637876D01*
X12550435Y-16637876D01*
X12531388Y-16628352D01*
X12521864Y-16618828D01*
X12836149Y-16637876D02*
X12721864Y-16637876D01*
X12779007Y-16637876D02*
X12779007Y-16437876D01*
X12759959Y-16466448D01*
X12740911Y-16485495D01*
X12721864Y-16495019D01*
X13017102Y-16437876D02*
X12921864Y-16437876D01*
X12912340Y-16533114D01*
X12921864Y-16523590D01*
X12940911Y-16514067D01*
X12988530Y-16514067D01*
X13007578Y-16523590D01*
X13017102Y-16533114D01*
X13026626Y-16552162D01*
X13026626Y-16599781D01*
X13017102Y-16618828D01*
X13007578Y-16628352D01*
X12988530Y-16637876D01*
X12940911Y-16637876D01*
X12921864Y-16628352D01*
X12912340Y-16618828D01*
X13102816Y-16437876D02*
X13102816Y-16475971D01*
X13179007Y-16437876D02*
X13179007Y-16475971D01*
X13474245Y-16714067D02*
X13464721Y-16704543D01*
X13445673Y-16675971D01*
X13436149Y-16656924D01*
X13426626Y-16628352D01*
X13417102Y-16580733D01*
X13417102Y-16542638D01*
X13426626Y-16495019D01*
X13436149Y-16466448D01*
X13445673Y-16447400D01*
X13464721Y-16418828D01*
X13474245Y-16409305D01*
X13636149Y-16437876D02*
X13598054Y-16437876D01*
X13579007Y-16447400D01*
X13569483Y-16456924D01*
X13550435Y-16485495D01*
X13540911Y-16523590D01*
X13540911Y-16599781D01*
X13550435Y-16618828D01*
X13559959Y-16628352D01*
X13579007Y-16637876D01*
X13617102Y-16637876D01*
X13636149Y-16628352D01*
X13645673Y-16618828D01*
X13655197Y-16599781D01*
X13655197Y-16552162D01*
X13645673Y-16533114D01*
X13636149Y-16523590D01*
X13617102Y-16514067D01*
X13579007Y-16514067D01*
X13559959Y-16523590D01*
X13550435Y-16533114D01*
X13540911Y-16552162D01*
X13826626Y-16504543D02*
X13826626Y-16637876D01*
X13779007Y-16428352D02*
X13731388Y-16571209D01*
X13855197Y-16571209D01*
X14083768Y-16637876D02*
X14083768Y-16437876D01*
X14169483Y-16637876D02*
X14169483Y-16533114D01*
X14159959Y-16514067D01*
X14140911Y-16504543D01*
X14112340Y-16504543D01*
X14093292Y-16514067D01*
X14083768Y-16523590D01*
X14293292Y-16637876D02*
X14274245Y-16628352D01*
X14264721Y-16618828D01*
X14255197Y-16599781D01*
X14255197Y-16542638D01*
X14264721Y-16523590D01*
X14274245Y-16514067D01*
X14293292Y-16504543D01*
X14321864Y-16504543D01*
X14340911Y-16514067D01*
X14350435Y-16523590D01*
X14359959Y-16542638D01*
X14359959Y-16599781D01*
X14350435Y-16618828D01*
X14340911Y-16628352D01*
X14321864Y-16637876D01*
X14293292Y-16637876D01*
X14474245Y-16637876D02*
X14455197Y-16628352D01*
X14445673Y-16609305D01*
X14445673Y-16437876D01*
X14626626Y-16628352D02*
X14607578Y-16637876D01*
X14569483Y-16637876D01*
X14550435Y-16628352D01*
X14540911Y-16609305D01*
X14540911Y-16533114D01*
X14550435Y-16514067D01*
X14569483Y-16504543D01*
X14607578Y-16504543D01*
X14626626Y-16514067D01*
X14636149Y-16533114D01*
X14636149Y-16552162D01*
X14540911Y-16571209D01*
X14712340Y-16628352D02*
X14731388Y-16637876D01*
X14769483Y-16637876D01*
X14788530Y-16628352D01*
X14798054Y-16609305D01*
X14798054Y-16599781D01*
X14788530Y-16580733D01*
X14769483Y-16571209D01*
X14740911Y-16571209D01*
X14721864Y-16561686D01*
X14712340Y-16542638D01*
X14712340Y-16533114D01*
X14721864Y-16514067D01*
X14740911Y-16504543D01*
X14769483Y-16504543D01*
X14788530Y-16514067D01*
X14864721Y-16714067D02*
X14874245Y-16704543D01*
X14893292Y-16675971D01*
X14902816Y-16656924D01*
X14912340Y-16628352D01*
X14921864Y-16580733D01*
X14921864Y-16542638D01*
X14912340Y-16495019D01*
X14902816Y-16466448D01*
X14893292Y-16447400D01*
X14874245Y-16418828D01*
X14864721Y-16409305D01*
D16*
X9854840Y-16858900D02*
X9902340Y-16811400D01*
X9854840Y-16763900D01*
X9807340Y-16811400D01*
X9854840Y-16858900D01*
D11*
X10198054Y-16701876D02*
X10217102Y-16701876D01*
X10236150Y-16711400D01*
X10245673Y-16720924D01*
X10255197Y-16739971D01*
X10264721Y-16778067D01*
X10264721Y-16825686D01*
X10255197Y-16863781D01*
X10245673Y-16882829D01*
X10236150Y-16892352D01*
X10217102Y-16901876D01*
X10198054Y-16901876D01*
X10179007Y-16892352D01*
X10169483Y-16882829D01*
X10159959Y-16863781D01*
X10150435Y-16825686D01*
X10150435Y-16778067D01*
X10159959Y-16739971D01*
X10169483Y-16720924D01*
X10179007Y-16711400D01*
X10198054Y-16701876D01*
X10350435Y-16882829D02*
X10359959Y-16892352D01*
X10350435Y-16901876D01*
X10340911Y-16892352D01*
X10350435Y-16882829D01*
X10350435Y-16901876D01*
X10455197Y-16901876D02*
X10493292Y-16901876D01*
X10512340Y-16892352D01*
X10521864Y-16882829D01*
X10540911Y-16854257D01*
X10550435Y-16816162D01*
X10550435Y-16739971D01*
X10540911Y-16720924D01*
X10531388Y-16711400D01*
X10512340Y-16701876D01*
X10474245Y-16701876D01*
X10455197Y-16711400D01*
X10445673Y-16720924D01*
X10436150Y-16739971D01*
X10436150Y-16787590D01*
X10445673Y-16806638D01*
X10455197Y-16816162D01*
X10474245Y-16825686D01*
X10512340Y-16825686D01*
X10531388Y-16816162D01*
X10540911Y-16806638D01*
X10550435Y-16787590D01*
X10731388Y-16701876D02*
X10636150Y-16701876D01*
X10626626Y-16797114D01*
X10636150Y-16787590D01*
X10655197Y-16778067D01*
X10702816Y-16778067D01*
X10721864Y-16787590D01*
X10731388Y-16797114D01*
X10740911Y-16816162D01*
X10740911Y-16863781D01*
X10731388Y-16882829D01*
X10721864Y-16892352D01*
X10702816Y-16901876D01*
X10655197Y-16901876D01*
X10636150Y-16892352D01*
X10626626Y-16882829D01*
X10864721Y-16701876D02*
X10883769Y-16701876D01*
X10902816Y-16711400D01*
X10912340Y-16720924D01*
X10921864Y-16739971D01*
X10931388Y-16778067D01*
X10931388Y-16825686D01*
X10921864Y-16863781D01*
X10912340Y-16882829D01*
X10902816Y-16892352D01*
X10883769Y-16901876D01*
X10864721Y-16901876D01*
X10845673Y-16892352D01*
X10836150Y-16882829D01*
X10826626Y-16863781D01*
X10817102Y-16825686D01*
X10817102Y-16778067D01*
X10826626Y-16739971D01*
X10836150Y-16720924D01*
X10845673Y-16711400D01*
X10864721Y-16701876D01*
X11017102Y-16901876D02*
X11017102Y-16768543D01*
X11017102Y-16787590D02*
X11026626Y-16778067D01*
X11045673Y-16768543D01*
X11074245Y-16768543D01*
X11093292Y-16778067D01*
X11102816Y-16797114D01*
X11102816Y-16901876D01*
X11102816Y-16797114D02*
X11112340Y-16778067D01*
X11131388Y-16768543D01*
X11159959Y-16768543D01*
X11179007Y-16778067D01*
X11188530Y-16797114D01*
X11188530Y-16901876D01*
X11283768Y-16901876D02*
X11283768Y-16768543D01*
X11283768Y-16787590D02*
X11293292Y-16778067D01*
X11312340Y-16768543D01*
X11340911Y-16768543D01*
X11359959Y-16778067D01*
X11369483Y-16797114D01*
X11369483Y-16901876D01*
X11369483Y-16797114D02*
X11379007Y-16778067D01*
X11398054Y-16768543D01*
X11426626Y-16768543D01*
X11445673Y-16778067D01*
X11455197Y-16797114D01*
X11455197Y-16901876D01*
X11845673Y-16692352D02*
X11674245Y-16949495D01*
X12102816Y-16701876D02*
X12121864Y-16701876D01*
X12140911Y-16711400D01*
X12150435Y-16720924D01*
X12159959Y-16739971D01*
X12169483Y-16778067D01*
X12169483Y-16825686D01*
X12159959Y-16863781D01*
X12150435Y-16882829D01*
X12140911Y-16892352D01*
X12121864Y-16901876D01*
X12102816Y-16901876D01*
X12083768Y-16892352D01*
X12074245Y-16882829D01*
X12064721Y-16863781D01*
X12055197Y-16825686D01*
X12055197Y-16778067D01*
X12064721Y-16739971D01*
X12074245Y-16720924D01*
X12083768Y-16711400D01*
X12102816Y-16701876D01*
X12255197Y-16882829D02*
X12264721Y-16892352D01*
X12255197Y-16901876D01*
X12245673Y-16892352D01*
X12255197Y-16882829D01*
X12255197Y-16901876D01*
X12388530Y-16701876D02*
X12407578Y-16701876D01*
X12426626Y-16711400D01*
X12436149Y-16720924D01*
X12445673Y-16739971D01*
X12455197Y-16778067D01*
X12455197Y-16825686D01*
X12445673Y-16863781D01*
X12436149Y-16882829D01*
X12426626Y-16892352D01*
X12407578Y-16901876D01*
X12388530Y-16901876D01*
X12369483Y-16892352D01*
X12359959Y-16882829D01*
X12350435Y-16863781D01*
X12340911Y-16825686D01*
X12340911Y-16778067D01*
X12350435Y-16739971D01*
X12359959Y-16720924D01*
X12369483Y-16711400D01*
X12388530Y-16701876D01*
X12521864Y-16701876D02*
X12645673Y-16701876D01*
X12579007Y-16778067D01*
X12607578Y-16778067D01*
X12626626Y-16787590D01*
X12636149Y-16797114D01*
X12645673Y-16816162D01*
X12645673Y-16863781D01*
X12636149Y-16882829D01*
X12626626Y-16892352D01*
X12607578Y-16901876D01*
X12550435Y-16901876D01*
X12531388Y-16892352D01*
X12521864Y-16882829D01*
X12712340Y-16701876D02*
X12845673Y-16701876D01*
X12759959Y-16901876D01*
X13007578Y-16768543D02*
X13007578Y-16901876D01*
X12959959Y-16692352D02*
X12912340Y-16835210D01*
X13036149Y-16835210D01*
X13102816Y-16701876D02*
X13102816Y-16739971D01*
X13179007Y-16701876D02*
X13179007Y-16739971D01*
X13474245Y-16978067D02*
X13464721Y-16968543D01*
X13445673Y-16939971D01*
X13436149Y-16920924D01*
X13426626Y-16892352D01*
X13417102Y-16844733D01*
X13417102Y-16806638D01*
X13426626Y-16759019D01*
X13436149Y-16730448D01*
X13445673Y-16711400D01*
X13464721Y-16682828D01*
X13474245Y-16673305D01*
X13655197Y-16901876D02*
X13540911Y-16901876D01*
X13598054Y-16901876D02*
X13598054Y-16701876D01*
X13579007Y-16730448D01*
X13559959Y-16749495D01*
X13540911Y-16759019D01*
X13826626Y-16701876D02*
X13788530Y-16701876D01*
X13769483Y-16711400D01*
X13759959Y-16720924D01*
X13740911Y-16749495D01*
X13731388Y-16787590D01*
X13731388Y-16863781D01*
X13740911Y-16882829D01*
X13750435Y-16892352D01*
X13769483Y-16901876D01*
X13807578Y-16901876D01*
X13826626Y-16892352D01*
X13836149Y-16882829D01*
X13845673Y-16863781D01*
X13845673Y-16816162D01*
X13836149Y-16797114D01*
X13826626Y-16787590D01*
X13807578Y-16778067D01*
X13769483Y-16778067D01*
X13750435Y-16787590D01*
X13740911Y-16797114D01*
X13731388Y-16816162D01*
X14083768Y-16901876D02*
X14083768Y-16701876D01*
X14169483Y-16901876D02*
X14169483Y-16797114D01*
X14159959Y-16778067D01*
X14140911Y-16768543D01*
X14112340Y-16768543D01*
X14093292Y-16778067D01*
X14083768Y-16787590D01*
X14293292Y-16901876D02*
X14274245Y-16892352D01*
X14264721Y-16882829D01*
X14255197Y-16863781D01*
X14255197Y-16806638D01*
X14264721Y-16787590D01*
X14274245Y-16778067D01*
X14293292Y-16768543D01*
X14321864Y-16768543D01*
X14340911Y-16778067D01*
X14350435Y-16787590D01*
X14359959Y-16806638D01*
X14359959Y-16863781D01*
X14350435Y-16882829D01*
X14340911Y-16892352D01*
X14321864Y-16901876D01*
X14293292Y-16901876D01*
X14474245Y-16901876D02*
X14455197Y-16892352D01*
X14445673Y-16873305D01*
X14445673Y-16701876D01*
X14626626Y-16892352D02*
X14607578Y-16901876D01*
X14569483Y-16901876D01*
X14550435Y-16892352D01*
X14540911Y-16873305D01*
X14540911Y-16797114D01*
X14550435Y-16778067D01*
X14569483Y-16768543D01*
X14607578Y-16768543D01*
X14626626Y-16778067D01*
X14636149Y-16797114D01*
X14636149Y-16816162D01*
X14540911Y-16835210D01*
X14712340Y-16892352D02*
X14731388Y-16901876D01*
X14769483Y-16901876D01*
X14788530Y-16892352D01*
X14798054Y-16873305D01*
X14798054Y-16863781D01*
X14788530Y-16844733D01*
X14769483Y-16835210D01*
X14740911Y-16835210D01*
X14721864Y-16825686D01*
X14712340Y-16806638D01*
X14712340Y-16797114D01*
X14721864Y-16778067D01*
X14740911Y-16768543D01*
X14769483Y-16768543D01*
X14788530Y-16778067D01*
X14864721Y-16978067D02*
X14874245Y-16968543D01*
X14893292Y-16939971D01*
X14902816Y-16920924D01*
X14912340Y-16892352D01*
X14921864Y-16844733D01*
X14921864Y-16806638D01*
X14912340Y-16759019D01*
X14902816Y-16730448D01*
X14893292Y-16711400D01*
X14874245Y-16682828D01*
X14864721Y-16673305D01*
D17*
X9802340Y-17025400D02*
X9902340Y-17125400D01*
X9902340Y-17025400D02*
X9802340Y-17125400D01*
X9902340Y-17075400D02*
G75*
G03*
X9902340Y-17075400I-50000J0D01*
G01*
D11*
X10264721Y-17165876D02*
X10150435Y-17165876D01*
X10207578Y-17165876D02*
X10207578Y-16965876D01*
X10188530Y-16994448D01*
X10169483Y-17013495D01*
X10150435Y-17023019D01*
X10350435Y-17146829D02*
X10359959Y-17156352D01*
X10350435Y-17165876D01*
X10340911Y-17156352D01*
X10350435Y-17146829D01*
X10350435Y-17165876D01*
X10483769Y-16965876D02*
X10502816Y-16965876D01*
X10521864Y-16975400D01*
X10531388Y-16984924D01*
X10540911Y-17003971D01*
X10550435Y-17042067D01*
X10550435Y-17089686D01*
X10540911Y-17127781D01*
X10531388Y-17146829D01*
X10521864Y-17156352D01*
X10502816Y-17165876D01*
X10483769Y-17165876D01*
X10464721Y-17156352D01*
X10455197Y-17146829D01*
X10445673Y-17127781D01*
X10436150Y-17089686D01*
X10436150Y-17042067D01*
X10445673Y-17003971D01*
X10455197Y-16984924D01*
X10464721Y-16975400D01*
X10483769Y-16965876D01*
X10674245Y-16965876D02*
X10693292Y-16965876D01*
X10712340Y-16975400D01*
X10721864Y-16984924D01*
X10731388Y-17003971D01*
X10740911Y-17042067D01*
X10740911Y-17089686D01*
X10731388Y-17127781D01*
X10721864Y-17146829D01*
X10712340Y-17156352D01*
X10693292Y-17165876D01*
X10674245Y-17165876D01*
X10655197Y-17156352D01*
X10645673Y-17146829D01*
X10636150Y-17127781D01*
X10626626Y-17089686D01*
X10626626Y-17042067D01*
X10636150Y-17003971D01*
X10645673Y-16984924D01*
X10655197Y-16975400D01*
X10674245Y-16965876D01*
X10864721Y-16965876D02*
X10883769Y-16965876D01*
X10902816Y-16975400D01*
X10912340Y-16984924D01*
X10921864Y-17003971D01*
X10931388Y-17042067D01*
X10931388Y-17089686D01*
X10921864Y-17127781D01*
X10912340Y-17146829D01*
X10902816Y-17156352D01*
X10883769Y-17165876D01*
X10864721Y-17165876D01*
X10845673Y-17156352D01*
X10836150Y-17146829D01*
X10826626Y-17127781D01*
X10817102Y-17089686D01*
X10817102Y-17042067D01*
X10826626Y-17003971D01*
X10836150Y-16984924D01*
X10845673Y-16975400D01*
X10864721Y-16965876D01*
X11017102Y-17165876D02*
X11017102Y-17032543D01*
X11017102Y-17051590D02*
X11026626Y-17042067D01*
X11045673Y-17032543D01*
X11074245Y-17032543D01*
X11093292Y-17042067D01*
X11102816Y-17061114D01*
X11102816Y-17165876D01*
X11102816Y-17061114D02*
X11112340Y-17042067D01*
X11131388Y-17032543D01*
X11159959Y-17032543D01*
X11179007Y-17042067D01*
X11188530Y-17061114D01*
X11188530Y-17165876D01*
X11283768Y-17165876D02*
X11283768Y-17032543D01*
X11283768Y-17051590D02*
X11293292Y-17042067D01*
X11312340Y-17032543D01*
X11340911Y-17032543D01*
X11359959Y-17042067D01*
X11369483Y-17061114D01*
X11369483Y-17165876D01*
X11369483Y-17061114D02*
X11379007Y-17042067D01*
X11398054Y-17032543D01*
X11426626Y-17032543D01*
X11445673Y-17042067D01*
X11455197Y-17061114D01*
X11455197Y-17165876D01*
X11845673Y-16956352D02*
X11674245Y-17213495D01*
X12102816Y-16965876D02*
X12121864Y-16965876D01*
X12140911Y-16975400D01*
X12150435Y-16984924D01*
X12159959Y-17003971D01*
X12169483Y-17042067D01*
X12169483Y-17089686D01*
X12159959Y-17127781D01*
X12150435Y-17146829D01*
X12140911Y-17156352D01*
X12121864Y-17165876D01*
X12102816Y-17165876D01*
X12083768Y-17156352D01*
X12074245Y-17146829D01*
X12064721Y-17127781D01*
X12055197Y-17089686D01*
X12055197Y-17042067D01*
X12064721Y-17003971D01*
X12074245Y-16984924D01*
X12083768Y-16975400D01*
X12102816Y-16965876D01*
X12255197Y-17146829D02*
X12264721Y-17156352D01*
X12255197Y-17165876D01*
X12245673Y-17156352D01*
X12255197Y-17146829D01*
X12255197Y-17165876D01*
X12388530Y-16965876D02*
X12407578Y-16965876D01*
X12426626Y-16975400D01*
X12436149Y-16984924D01*
X12445673Y-17003971D01*
X12455197Y-17042067D01*
X12455197Y-17089686D01*
X12445673Y-17127781D01*
X12436149Y-17146829D01*
X12426626Y-17156352D01*
X12407578Y-17165876D01*
X12388530Y-17165876D01*
X12369483Y-17156352D01*
X12359959Y-17146829D01*
X12350435Y-17127781D01*
X12340911Y-17089686D01*
X12340911Y-17042067D01*
X12350435Y-17003971D01*
X12359959Y-16984924D01*
X12369483Y-16975400D01*
X12388530Y-16965876D01*
X12521864Y-16965876D02*
X12645673Y-16965876D01*
X12579007Y-17042067D01*
X12607578Y-17042067D01*
X12626626Y-17051590D01*
X12636149Y-17061114D01*
X12645673Y-17080162D01*
X12645673Y-17127781D01*
X12636149Y-17146829D01*
X12626626Y-17156352D01*
X12607578Y-17165876D01*
X12550435Y-17165876D01*
X12531388Y-17156352D01*
X12521864Y-17146829D01*
X12740911Y-17165876D02*
X12779007Y-17165876D01*
X12798054Y-17156352D01*
X12807578Y-17146829D01*
X12826626Y-17118257D01*
X12836149Y-17080162D01*
X12836149Y-17003971D01*
X12826626Y-16984924D01*
X12817102Y-16975400D01*
X12798054Y-16965876D01*
X12759959Y-16965876D01*
X12740911Y-16975400D01*
X12731388Y-16984924D01*
X12721864Y-17003971D01*
X12721864Y-17051590D01*
X12731388Y-17070638D01*
X12740911Y-17080162D01*
X12759959Y-17089686D01*
X12798054Y-17089686D01*
X12817102Y-17080162D01*
X12826626Y-17070638D01*
X12836149Y-17051590D01*
X13007578Y-17032543D02*
X13007578Y-17165876D01*
X12959959Y-16956352D02*
X12912340Y-17099210D01*
X13036149Y-17099210D01*
X13102816Y-16965876D02*
X13102816Y-17003971D01*
X13179007Y-16965876D02*
X13179007Y-17003971D01*
X13474245Y-17242067D02*
X13464721Y-17232543D01*
X13445673Y-17203971D01*
X13436149Y-17184924D01*
X13426626Y-17156352D01*
X13417102Y-17108733D01*
X13417102Y-17070638D01*
X13426626Y-17023019D01*
X13436149Y-16994448D01*
X13445673Y-16975400D01*
X13464721Y-16946829D01*
X13474245Y-16937305D01*
X13588530Y-16965876D02*
X13607578Y-16965876D01*
X13626626Y-16975400D01*
X13636149Y-16984924D01*
X13645673Y-17003971D01*
X13655197Y-17042067D01*
X13655197Y-17089686D01*
X13645673Y-17127781D01*
X13636149Y-17146829D01*
X13626626Y-17156352D01*
X13607578Y-17165876D01*
X13588530Y-17165876D01*
X13569483Y-17156352D01*
X13559959Y-17146829D01*
X13550435Y-17127781D01*
X13540911Y-17089686D01*
X13540911Y-17042067D01*
X13550435Y-17003971D01*
X13559959Y-16984924D01*
X13569483Y-16975400D01*
X13588530Y-16965876D01*
X13893292Y-17165876D02*
X13893292Y-16965876D01*
X13979007Y-17165876D02*
X13979007Y-17061114D01*
X13969483Y-17042067D01*
X13950435Y-17032543D01*
X13921864Y-17032543D01*
X13902816Y-17042067D01*
X13893292Y-17051590D01*
X14102816Y-17165876D02*
X14083768Y-17156352D01*
X14074245Y-17146829D01*
X14064721Y-17127781D01*
X14064721Y-17070638D01*
X14074245Y-17051590D01*
X14083768Y-17042067D01*
X14102816Y-17032543D01*
X14131388Y-17032543D01*
X14150435Y-17042067D01*
X14159959Y-17051590D01*
X14169483Y-17070638D01*
X14169483Y-17127781D01*
X14159959Y-17146829D01*
X14150435Y-17156352D01*
X14131388Y-17165876D01*
X14102816Y-17165876D01*
X14283768Y-17165876D02*
X14264721Y-17156352D01*
X14255197Y-17137305D01*
X14255197Y-16965876D01*
X14436149Y-17156352D02*
X14417102Y-17165876D01*
X14379007Y-17165876D01*
X14359959Y-17156352D01*
X14350435Y-17137305D01*
X14350435Y-17061114D01*
X14359959Y-17042067D01*
X14379007Y-17032543D01*
X14417102Y-17032543D01*
X14436149Y-17042067D01*
X14445673Y-17061114D01*
X14445673Y-17080162D01*
X14350435Y-17099210D01*
X14521864Y-17156352D02*
X14540911Y-17165876D01*
X14579007Y-17165876D01*
X14598054Y-17156352D01*
X14607578Y-17137305D01*
X14607578Y-17127781D01*
X14598054Y-17108733D01*
X14579007Y-17099210D01*
X14550435Y-17099210D01*
X14531388Y-17089686D01*
X14521864Y-17070638D01*
X14521864Y-17061114D01*
X14531388Y-17042067D01*
X14550435Y-17032543D01*
X14579007Y-17032543D01*
X14598054Y-17042067D01*
X14845673Y-17089686D02*
X14998054Y-17089686D01*
X14921864Y-17165876D02*
X14921864Y-17013495D01*
X15226626Y-16965876D02*
X15350435Y-16965876D01*
X15283768Y-17042067D01*
X15312340Y-17042067D01*
X15331388Y-17051590D01*
X15340911Y-17061114D01*
X15350435Y-17080162D01*
X15350435Y-17127781D01*
X15340911Y-17146829D01*
X15331388Y-17156352D01*
X15312340Y-17165876D01*
X15255197Y-17165876D01*
X15236149Y-17156352D01*
X15226626Y-17146829D01*
X15579007Y-17156352D02*
X15598054Y-17165876D01*
X15636149Y-17165876D01*
X15655197Y-17156352D01*
X15664721Y-17137305D01*
X15664721Y-17127781D01*
X15655197Y-17108733D01*
X15636149Y-17099210D01*
X15607578Y-17099210D01*
X15588530Y-17089686D01*
X15579007Y-17070638D01*
X15579007Y-17061114D01*
X15588530Y-17042067D01*
X15607578Y-17032543D01*
X15636149Y-17032543D01*
X15655197Y-17042067D01*
X15779007Y-17165876D02*
X15759959Y-17156352D01*
X15750435Y-17137305D01*
X15750435Y-16965876D01*
X15883768Y-17165876D02*
X15864721Y-17156352D01*
X15855197Y-17146829D01*
X15845673Y-17127781D01*
X15845673Y-17070638D01*
X15855197Y-17051590D01*
X15864721Y-17042067D01*
X15883768Y-17032543D01*
X15912340Y-17032543D01*
X15931388Y-17042067D01*
X15940911Y-17051590D01*
X15950435Y-17070638D01*
X15950435Y-17127781D01*
X15940911Y-17146829D01*
X15931388Y-17156352D01*
X15912340Y-17165876D01*
X15883768Y-17165876D01*
X16007578Y-17032543D02*
X16083768Y-17032543D01*
X16036149Y-16965876D02*
X16036149Y-17137305D01*
X16045673Y-17156352D01*
X16064721Y-17165876D01*
X16083768Y-17165876D01*
X16140911Y-17156352D02*
X16159959Y-17165876D01*
X16198054Y-17165876D01*
X16217102Y-17156352D01*
X16226626Y-17137305D01*
X16226626Y-17127781D01*
X16217102Y-17108733D01*
X16198054Y-17099210D01*
X16169483Y-17099210D01*
X16150435Y-17089686D01*
X16140911Y-17070638D01*
X16140911Y-17061114D01*
X16150435Y-17042067D01*
X16169483Y-17032543D01*
X16198054Y-17032543D01*
X16217102Y-17042067D01*
X16293292Y-17242067D02*
X16302816Y-17232543D01*
X16321864Y-17203971D01*
X16331388Y-17184924D01*
X16340911Y-17156352D01*
X16350435Y-17108733D01*
X16350435Y-17070638D01*
X16340911Y-17023019D01*
X16331388Y-16994448D01*
X16321864Y-16975400D01*
X16302816Y-16946829D01*
X16293292Y-16937305D01*
D18*
X9762340Y-17269400D02*
X9902340Y-17409400D01*
X9902340Y-17269400D02*
X9762340Y-17409400D01*
X9832340Y-17269400D02*
X9832340Y-17409400D01*
X9762340Y-17339400D02*
X9902340Y-17339400D01*
D11*
X10264721Y-17429876D02*
X10150435Y-17429876D01*
X10207578Y-17429876D02*
X10207578Y-17229876D01*
X10188530Y-17258448D01*
X10169483Y-17277495D01*
X10150435Y-17287019D01*
X10350435Y-17410829D02*
X10359959Y-17420352D01*
X10350435Y-17429876D01*
X10340911Y-17420352D01*
X10350435Y-17410829D01*
X10350435Y-17429876D01*
X10531388Y-17296543D02*
X10531388Y-17429876D01*
X10483769Y-17220352D02*
X10436150Y-17363210D01*
X10559959Y-17363210D01*
X10674245Y-17229876D02*
X10693292Y-17229876D01*
X10712340Y-17239400D01*
X10721864Y-17248924D01*
X10731388Y-17267971D01*
X10740911Y-17306067D01*
X10740911Y-17353686D01*
X10731388Y-17391781D01*
X10721864Y-17410829D01*
X10712340Y-17420352D01*
X10693292Y-17429876D01*
X10674245Y-17429876D01*
X10655197Y-17420352D01*
X10645673Y-17410829D01*
X10636150Y-17391781D01*
X10626626Y-17353686D01*
X10626626Y-17306067D01*
X10636150Y-17267971D01*
X10645673Y-17248924D01*
X10655197Y-17239400D01*
X10674245Y-17229876D01*
X10864721Y-17229876D02*
X10883769Y-17229876D01*
X10902816Y-17239400D01*
X10912340Y-17248924D01*
X10921864Y-17267971D01*
X10931388Y-17306067D01*
X10931388Y-17353686D01*
X10921864Y-17391781D01*
X10912340Y-17410829D01*
X10902816Y-17420352D01*
X10883769Y-17429876D01*
X10864721Y-17429876D01*
X10845673Y-17420352D01*
X10836150Y-17410829D01*
X10826626Y-17391781D01*
X10817102Y-17353686D01*
X10817102Y-17306067D01*
X10826626Y-17267971D01*
X10836150Y-17248924D01*
X10845673Y-17239400D01*
X10864721Y-17229876D01*
X11017102Y-17429876D02*
X11017102Y-17296543D01*
X11017102Y-17315590D02*
X11026626Y-17306067D01*
X11045673Y-17296543D01*
X11074245Y-17296543D01*
X11093292Y-17306067D01*
X11102816Y-17325114D01*
X11102816Y-17429876D01*
X11102816Y-17325114D02*
X11112340Y-17306067D01*
X11131388Y-17296543D01*
X11159959Y-17296543D01*
X11179007Y-17306067D01*
X11188530Y-17325114D01*
X11188530Y-17429876D01*
X11283768Y-17429876D02*
X11283768Y-17296543D01*
X11283768Y-17315590D02*
X11293292Y-17306067D01*
X11312340Y-17296543D01*
X11340911Y-17296543D01*
X11359959Y-17306067D01*
X11369483Y-17325114D01*
X11369483Y-17429876D01*
X11369483Y-17325114D02*
X11379007Y-17306067D01*
X11398054Y-17296543D01*
X11426626Y-17296543D01*
X11445673Y-17306067D01*
X11455197Y-17325114D01*
X11455197Y-17429876D01*
X11845673Y-17220352D02*
X11674245Y-17477495D01*
X12102816Y-17229876D02*
X12121864Y-17229876D01*
X12140911Y-17239400D01*
X12150435Y-17248924D01*
X12159959Y-17267971D01*
X12169483Y-17306067D01*
X12169483Y-17353686D01*
X12159959Y-17391781D01*
X12150435Y-17410829D01*
X12140911Y-17420352D01*
X12121864Y-17429876D01*
X12102816Y-17429876D01*
X12083768Y-17420352D01*
X12074245Y-17410829D01*
X12064721Y-17391781D01*
X12055197Y-17353686D01*
X12055197Y-17306067D01*
X12064721Y-17267971D01*
X12074245Y-17248924D01*
X12083768Y-17239400D01*
X12102816Y-17229876D01*
X12255197Y-17410829D02*
X12264721Y-17420352D01*
X12255197Y-17429876D01*
X12245673Y-17420352D01*
X12255197Y-17410829D01*
X12255197Y-17429876D01*
X12388530Y-17229876D02*
X12407578Y-17229876D01*
X12426626Y-17239400D01*
X12436149Y-17248924D01*
X12445673Y-17267971D01*
X12455197Y-17306067D01*
X12455197Y-17353686D01*
X12445673Y-17391781D01*
X12436149Y-17410829D01*
X12426626Y-17420352D01*
X12407578Y-17429876D01*
X12388530Y-17429876D01*
X12369483Y-17420352D01*
X12359959Y-17410829D01*
X12350435Y-17391781D01*
X12340911Y-17353686D01*
X12340911Y-17306067D01*
X12350435Y-17267971D01*
X12359959Y-17248924D01*
X12369483Y-17239400D01*
X12388530Y-17229876D01*
X12636149Y-17229876D02*
X12540911Y-17229876D01*
X12531388Y-17325114D01*
X12540911Y-17315590D01*
X12559959Y-17306067D01*
X12607578Y-17306067D01*
X12626626Y-17315590D01*
X12636149Y-17325114D01*
X12645673Y-17344162D01*
X12645673Y-17391781D01*
X12636149Y-17410829D01*
X12626626Y-17420352D01*
X12607578Y-17429876D01*
X12559959Y-17429876D01*
X12540911Y-17420352D01*
X12531388Y-17410829D01*
X12826626Y-17229876D02*
X12731388Y-17229876D01*
X12721864Y-17325114D01*
X12731388Y-17315590D01*
X12750435Y-17306067D01*
X12798054Y-17306067D01*
X12817102Y-17315590D01*
X12826626Y-17325114D01*
X12836149Y-17344162D01*
X12836149Y-17391781D01*
X12826626Y-17410829D01*
X12817102Y-17420352D01*
X12798054Y-17429876D01*
X12750435Y-17429876D01*
X12731388Y-17420352D01*
X12721864Y-17410829D01*
X13026626Y-17429876D02*
X12912340Y-17429876D01*
X12969483Y-17429876D02*
X12969483Y-17229876D01*
X12950435Y-17258448D01*
X12931388Y-17277495D01*
X12912340Y-17287019D01*
X13102816Y-17229876D02*
X13102816Y-17267971D01*
X13179007Y-17229876D02*
X13179007Y-17267971D01*
X13474245Y-17506067D02*
X13464721Y-17496543D01*
X13445673Y-17467971D01*
X13436149Y-17448924D01*
X13426626Y-17420352D01*
X13417102Y-17372733D01*
X13417102Y-17334638D01*
X13426626Y-17287019D01*
X13436149Y-17258448D01*
X13445673Y-17239400D01*
X13464721Y-17210829D01*
X13474245Y-17201305D01*
X13636149Y-17296543D02*
X13636149Y-17429876D01*
X13588530Y-17220352D02*
X13540911Y-17363210D01*
X13664721Y-17363210D01*
X13893292Y-17429876D02*
X13893292Y-17229876D01*
X13979007Y-17429876D02*
X13979007Y-17325114D01*
X13969483Y-17306067D01*
X13950435Y-17296543D01*
X13921864Y-17296543D01*
X13902816Y-17306067D01*
X13893292Y-17315590D01*
X14102816Y-17429876D02*
X14083768Y-17420352D01*
X14074245Y-17410829D01*
X14064721Y-17391781D01*
X14064721Y-17334638D01*
X14074245Y-17315590D01*
X14083768Y-17306067D01*
X14102816Y-17296543D01*
X14131388Y-17296543D01*
X14150435Y-17306067D01*
X14159959Y-17315590D01*
X14169483Y-17334638D01*
X14169483Y-17391781D01*
X14159959Y-17410829D01*
X14150435Y-17420352D01*
X14131388Y-17429876D01*
X14102816Y-17429876D01*
X14283768Y-17429876D02*
X14264721Y-17420352D01*
X14255197Y-17401305D01*
X14255197Y-17229876D01*
X14436149Y-17420352D02*
X14417102Y-17429876D01*
X14379007Y-17429876D01*
X14359959Y-17420352D01*
X14350435Y-17401305D01*
X14350435Y-17325114D01*
X14359959Y-17306067D01*
X14379007Y-17296543D01*
X14417102Y-17296543D01*
X14436149Y-17306067D01*
X14445673Y-17325114D01*
X14445673Y-17344162D01*
X14350435Y-17363210D01*
X14521864Y-17420352D02*
X14540911Y-17429876D01*
X14579007Y-17429876D01*
X14598054Y-17420352D01*
X14607578Y-17401305D01*
X14607578Y-17391781D01*
X14598054Y-17372733D01*
X14579007Y-17363210D01*
X14550435Y-17363210D01*
X14531388Y-17353686D01*
X14521864Y-17334638D01*
X14521864Y-17325114D01*
X14531388Y-17306067D01*
X14550435Y-17296543D01*
X14579007Y-17296543D01*
X14598054Y-17306067D01*
X14674245Y-17506067D02*
X14683768Y-17496543D01*
X14702816Y-17467971D01*
X14712340Y-17448924D01*
X14721864Y-17420352D01*
X14731388Y-17372733D01*
X14731388Y-17334638D01*
X14721864Y-17287019D01*
X14712340Y-17258448D01*
X14702816Y-17239400D01*
X14683768Y-17210829D01*
X14674245Y-17201305D01*
X9702340Y-17503400D02*
X9902340Y-17703400D01*
X9902340Y-17503400D02*
X9702340Y-17703400D01*
X9873051Y-17674111D02*
X9873051Y-17532689D01*
X9731629Y-17532689D01*
X9731629Y-17674111D01*
X9873051Y-17674111D01*
X10140911Y-17493876D02*
X10264721Y-17493876D01*
X10198054Y-17570067D01*
X10226626Y-17570067D01*
X10245673Y-17579590D01*
X10255197Y-17589114D01*
X10264721Y-17608162D01*
X10264721Y-17655781D01*
X10255197Y-17674829D01*
X10245673Y-17684352D01*
X10226626Y-17693876D01*
X10169483Y-17693876D01*
X10150435Y-17684352D01*
X10140911Y-17674829D01*
X10350435Y-17674829D02*
X10359959Y-17684352D01*
X10350435Y-17693876D01*
X10340911Y-17684352D01*
X10350435Y-17674829D01*
X10350435Y-17693876D01*
X10436150Y-17512924D02*
X10445673Y-17503400D01*
X10464721Y-17493876D01*
X10512340Y-17493876D01*
X10531388Y-17503400D01*
X10540911Y-17512924D01*
X10550435Y-17531971D01*
X10550435Y-17551019D01*
X10540911Y-17579590D01*
X10426626Y-17693876D01*
X10550435Y-17693876D01*
X10674245Y-17493876D02*
X10693292Y-17493876D01*
X10712340Y-17503400D01*
X10721864Y-17512924D01*
X10731388Y-17531971D01*
X10740911Y-17570067D01*
X10740911Y-17617686D01*
X10731388Y-17655781D01*
X10721864Y-17674829D01*
X10712340Y-17684352D01*
X10693292Y-17693876D01*
X10674245Y-17693876D01*
X10655197Y-17684352D01*
X10645673Y-17674829D01*
X10636150Y-17655781D01*
X10626626Y-17617686D01*
X10626626Y-17570067D01*
X10636150Y-17531971D01*
X10645673Y-17512924D01*
X10655197Y-17503400D01*
X10674245Y-17493876D01*
X10864721Y-17493876D02*
X10883769Y-17493876D01*
X10902816Y-17503400D01*
X10912340Y-17512924D01*
X10921864Y-17531971D01*
X10931388Y-17570067D01*
X10931388Y-17617686D01*
X10921864Y-17655781D01*
X10912340Y-17674829D01*
X10902816Y-17684352D01*
X10883769Y-17693876D01*
X10864721Y-17693876D01*
X10845673Y-17684352D01*
X10836150Y-17674829D01*
X10826626Y-17655781D01*
X10817102Y-17617686D01*
X10817102Y-17570067D01*
X10826626Y-17531971D01*
X10836150Y-17512924D01*
X10845673Y-17503400D01*
X10864721Y-17493876D01*
X11017102Y-17693876D02*
X11017102Y-17560543D01*
X11017102Y-17579590D02*
X11026626Y-17570067D01*
X11045673Y-17560543D01*
X11074245Y-17560543D01*
X11093292Y-17570067D01*
X11102816Y-17589114D01*
X11102816Y-17693876D01*
X11102816Y-17589114D02*
X11112340Y-17570067D01*
X11131388Y-17560543D01*
X11159959Y-17560543D01*
X11179007Y-17570067D01*
X11188530Y-17589114D01*
X11188530Y-17693876D01*
X11283768Y-17693876D02*
X11283768Y-17560543D01*
X11283768Y-17579590D02*
X11293292Y-17570067D01*
X11312340Y-17560543D01*
X11340911Y-17560543D01*
X11359959Y-17570067D01*
X11369483Y-17589114D01*
X11369483Y-17693876D01*
X11369483Y-17589114D02*
X11379007Y-17570067D01*
X11398054Y-17560543D01*
X11426626Y-17560543D01*
X11445673Y-17570067D01*
X11455197Y-17589114D01*
X11455197Y-17693876D01*
X11845673Y-17484352D02*
X11674245Y-17741495D01*
X12102816Y-17493876D02*
X12121864Y-17493876D01*
X12140911Y-17503400D01*
X12150435Y-17512924D01*
X12159959Y-17531971D01*
X12169483Y-17570067D01*
X12169483Y-17617686D01*
X12159959Y-17655781D01*
X12150435Y-17674829D01*
X12140911Y-17684352D01*
X12121864Y-17693876D01*
X12102816Y-17693876D01*
X12083768Y-17684352D01*
X12074245Y-17674829D01*
X12064721Y-17655781D01*
X12055197Y-17617686D01*
X12055197Y-17570067D01*
X12064721Y-17531971D01*
X12074245Y-17512924D01*
X12083768Y-17503400D01*
X12102816Y-17493876D01*
X12255197Y-17674829D02*
X12264721Y-17684352D01*
X12255197Y-17693876D01*
X12245673Y-17684352D01*
X12255197Y-17674829D01*
X12255197Y-17693876D01*
X12455197Y-17693876D02*
X12340911Y-17693876D01*
X12398054Y-17693876D02*
X12398054Y-17493876D01*
X12379007Y-17522448D01*
X12359959Y-17541495D01*
X12340911Y-17551019D01*
X12531388Y-17512924D02*
X12540911Y-17503400D01*
X12559959Y-17493876D01*
X12607578Y-17493876D01*
X12626626Y-17503400D01*
X12636149Y-17512924D01*
X12645673Y-17531971D01*
X12645673Y-17551019D01*
X12636149Y-17579590D01*
X12521864Y-17693876D01*
X12645673Y-17693876D01*
X12817102Y-17493876D02*
X12779007Y-17493876D01*
X12759959Y-17503400D01*
X12750435Y-17512924D01*
X12731388Y-17541495D01*
X12721864Y-17579590D01*
X12721864Y-17655781D01*
X12731388Y-17674829D01*
X12740911Y-17684352D01*
X12759959Y-17693876D01*
X12798054Y-17693876D01*
X12817102Y-17684352D01*
X12826626Y-17674829D01*
X12836149Y-17655781D01*
X12836149Y-17608162D01*
X12826626Y-17589114D01*
X12817102Y-17579590D01*
X12798054Y-17570067D01*
X12759959Y-17570067D01*
X12740911Y-17579590D01*
X12731388Y-17589114D01*
X12721864Y-17608162D01*
X12959959Y-17493876D02*
X12979007Y-17493876D01*
X12998054Y-17503400D01*
X13007578Y-17512924D01*
X13017102Y-17531971D01*
X13026626Y-17570067D01*
X13026626Y-17617686D01*
X13017102Y-17655781D01*
X13007578Y-17674829D01*
X12998054Y-17684352D01*
X12979007Y-17693876D01*
X12959959Y-17693876D01*
X12940911Y-17684352D01*
X12931388Y-17674829D01*
X12921864Y-17655781D01*
X12912340Y-17617686D01*
X12912340Y-17570067D01*
X12921864Y-17531971D01*
X12931388Y-17512924D01*
X12940911Y-17503400D01*
X12959959Y-17493876D01*
X13102816Y-17493876D02*
X13102816Y-17531971D01*
X13179007Y-17493876D02*
X13179007Y-17531971D01*
X13474245Y-17770067D02*
X13464721Y-17760543D01*
X13445673Y-17731971D01*
X13436149Y-17712924D01*
X13426626Y-17684352D01*
X13417102Y-17636733D01*
X13417102Y-17598638D01*
X13426626Y-17551019D01*
X13436149Y-17522448D01*
X13445673Y-17503400D01*
X13464721Y-17474829D01*
X13474245Y-17465305D01*
X13636149Y-17560543D02*
X13636149Y-17693876D01*
X13588530Y-17484352D02*
X13540911Y-17627210D01*
X13664721Y-17627210D01*
X13893292Y-17693876D02*
X13893292Y-17493876D01*
X13979007Y-17693876D02*
X13979007Y-17589114D01*
X13969483Y-17570067D01*
X13950435Y-17560543D01*
X13921864Y-17560543D01*
X13902816Y-17570067D01*
X13893292Y-17579590D01*
X14102816Y-17693876D02*
X14083768Y-17684352D01*
X14074245Y-17674829D01*
X14064721Y-17655781D01*
X14064721Y-17598638D01*
X14074245Y-17579590D01*
X14083768Y-17570067D01*
X14102816Y-17560543D01*
X14131388Y-17560543D01*
X14150435Y-17570067D01*
X14159959Y-17579590D01*
X14169483Y-17598638D01*
X14169483Y-17655781D01*
X14159959Y-17674829D01*
X14150435Y-17684352D01*
X14131388Y-17693876D01*
X14102816Y-17693876D01*
X14283768Y-17693876D02*
X14264721Y-17684352D01*
X14255197Y-17665305D01*
X14255197Y-17493876D01*
X14436149Y-17684352D02*
X14417102Y-17693876D01*
X14379007Y-17693876D01*
X14359959Y-17684352D01*
X14350435Y-17665305D01*
X14350435Y-17589114D01*
X14359959Y-17570067D01*
X14379007Y-17560543D01*
X14417102Y-17560543D01*
X14436149Y-17570067D01*
X14445673Y-17589114D01*
X14445673Y-17608162D01*
X14350435Y-17627210D01*
X14521864Y-17684352D02*
X14540911Y-17693876D01*
X14579007Y-17693876D01*
X14598054Y-17684352D01*
X14607578Y-17665305D01*
X14607578Y-17655781D01*
X14598054Y-17636733D01*
X14579007Y-17627210D01*
X14550435Y-17627210D01*
X14531388Y-17617686D01*
X14521864Y-17598638D01*
X14521864Y-17589114D01*
X14531388Y-17570067D01*
X14550435Y-17560543D01*
X14579007Y-17560543D01*
X14598054Y-17570067D01*
X14674245Y-17770067D02*
X14683768Y-17760543D01*
X14702816Y-17731971D01*
X14712340Y-17712924D01*
X14721864Y-17684352D01*
X14731388Y-17636733D01*
X14731388Y-17598638D01*
X14721864Y-17551019D01*
X14712340Y-17522448D01*
X14702816Y-17503400D01*
X14683768Y-17474829D01*
X14674245Y-17465305D01*
M02*
