G04 #@! TF.GenerationSoftware,KiCad,Pcbnew,(6.0.0)*
G04 #@! TF.CreationDate,2022-08-31T12:15:39-03:00*
G04 #@! TF.ProjectId,PCBMestrado_v1,5043424d-6573-4747-9261-646f5f76312e,rev?*
G04 #@! TF.SameCoordinates,Original*
G04 #@! TF.FileFunction,Legend,Bot*
G04 #@! TF.FilePolarity,Positive*
%FSLAX46Y46*%
G04 Gerber Fmt 4.6, Leading zero omitted, Abs format (unit mm)*
G04 Created by KiCad (PCBNEW (6.0.0)) date 2022-08-31 12:15:39*
%MOMM*%
%LPD*%
G01*
G04 APERTURE LIST*
G04 Aperture macros list*
%AMRoundRect*
0 Rectangle with rounded corners*
0 $1 Rounding radius*
0 $2 $3 $4 $5 $6 $7 $8 $9 X,Y pos of 4 corners*
0 Add a 4 corners polygon primitive as box body*
4,1,4,$2,$3,$4,$5,$6,$7,$8,$9,$2,$3,0*
0 Add four circle primitives for the rounded corners*
1,1,$1+$1,$2,$3*
1,1,$1+$1,$4,$5*
1,1,$1+$1,$6,$7*
1,1,$1+$1,$8,$9*
0 Add four rect primitives between the rounded corners*
20,1,$1+$1,$2,$3,$4,$5,0*
20,1,$1+$1,$4,$5,$6,$7,0*
20,1,$1+$1,$6,$7,$8,$9,0*
20,1,$1+$1,$8,$9,$2,$3,0*%
G04 Aperture macros list end*
%ADD10RoundRect,0.250000X-0.725000X0.600000X-0.725000X-0.600000X0.725000X-0.600000X0.725000X0.600000X0*%
%ADD11O,1.950000X1.700000*%
%ADD12C,0.650000*%
%ADD13O,1.000000X1.600000*%
%ADD14O,1.000000X2.100000*%
%ADD15C,1.200000*%
%ADD16RoundRect,0.250000X0.600000X0.725000X-0.600000X0.725000X-0.600000X-0.725000X0.600000X-0.725000X0*%
%ADD17O,1.700000X1.950000*%
%ADD18RoundRect,0.249999X-1.550001X0.790001X-1.550001X-0.790001X1.550001X-0.790001X1.550001X0.790001X0*%
%ADD19O,3.600000X2.080000*%
%ADD20R,2.000000X4.600000*%
%ADD21O,2.000000X4.200000*%
%ADD22O,4.200000X2.000000*%
G04 APERTURE END LIST*
%LPC*%
D10*
X190119000Y-117914400D03*
D11*
X190119000Y-120414400D03*
X190119000Y-122914400D03*
X190119000Y-125414400D03*
X190119000Y-127914400D03*
X190119000Y-130414400D03*
X190119000Y-132914400D03*
X190119000Y-135414400D03*
D12*
X174848000Y-57843800D03*
X169068000Y-57843800D03*
D13*
X167638000Y-54193800D03*
D14*
X167638000Y-58373800D03*
D13*
X176278000Y-54193800D03*
D14*
X176278000Y-58373800D03*
D15*
X142732200Y-101000800D03*
X142732200Y-103540800D03*
X142732200Y-106080800D03*
X142732200Y-108620800D03*
X142732200Y-111160800D03*
X142732200Y-113700800D03*
X142732200Y-116240800D03*
X142732200Y-118780800D03*
X142732200Y-121320800D03*
X142732200Y-123860800D03*
X142732200Y-126400800D03*
X142732200Y-128940800D03*
X142732200Y-131480800D03*
X142732200Y-134020800D03*
X142732200Y-136560800D03*
X142732200Y-139100800D03*
X142887200Y-142355800D03*
X145427200Y-142355800D03*
X147967200Y-142355800D03*
X150507200Y-142355800D03*
X153047200Y-142355800D03*
X155587200Y-142355800D03*
X158127200Y-142355800D03*
X160667200Y-142355800D03*
X163207200Y-142355800D03*
X165747200Y-142355800D03*
X168287200Y-142355800D03*
X170827200Y-142355800D03*
X173367200Y-142355800D03*
X175907200Y-142355800D03*
X178447200Y-142355800D03*
X180987200Y-142355800D03*
X181132200Y-139350800D03*
X181132200Y-136810800D03*
X181132200Y-134270800D03*
X181132200Y-131730800D03*
X181132200Y-129190800D03*
X181132200Y-126650800D03*
X181132200Y-124110800D03*
X181132200Y-121570800D03*
X181132200Y-119030800D03*
X181132200Y-116490800D03*
X181132200Y-113950800D03*
X181132200Y-111410800D03*
X181132200Y-108870800D03*
X181132200Y-106330800D03*
X181132200Y-103790800D03*
X181132200Y-101250800D03*
X181037200Y-97605800D03*
X178497200Y-97605800D03*
X175957200Y-97605800D03*
X173417200Y-97605800D03*
X170877200Y-97605800D03*
X168337200Y-97605800D03*
X165797200Y-97605800D03*
X163257200Y-97605800D03*
X160717200Y-97605800D03*
X158177200Y-97605800D03*
X155637200Y-97605800D03*
X153097200Y-97605800D03*
X150557200Y-97605800D03*
X148017200Y-97605800D03*
X145477200Y-97605800D03*
X142937200Y-97605800D03*
D16*
X135839200Y-148513800D03*
D17*
X133339200Y-148513800D03*
X130839200Y-148513800D03*
X128339200Y-148513800D03*
D18*
X110236000Y-92329000D03*
D19*
X110236000Y-97409000D03*
D12*
X121482600Y-57869200D03*
X115702600Y-57869200D03*
D14*
X114272600Y-58399200D03*
D13*
X122912600Y-54219200D03*
D14*
X122912600Y-58399200D03*
D13*
X114272600Y-54219200D03*
D20*
X114096800Y-80249000D03*
D21*
X107796800Y-80249000D03*
D22*
X111196800Y-85049000D03*
D18*
X109974900Y-131343400D03*
D19*
X109974900Y-136423400D03*
D16*
X121462800Y-148513800D03*
D17*
X118962800Y-148513800D03*
X116462800Y-148513800D03*
X113962800Y-148513800D03*
M02*
