%FSLAX45Y45*%
G04 Gerber Fmt 4.5, Leading zero omitted, Abs format (unit mm)*
G04 Created by KiCad (PCBNEW (6.0.0)) date 2022-08-31 12:15:53*
%MOMM*%
%LPD*%
G01*
G04 APERTURE LIST*
%TA.AperFunction,Profile*%
%ADD10C,0.200000*%
%TD*%
%ADD11C,0.200000*%
%ADD12C,0.065000*%
G04 APERTURE END LIST*
D10*
X12169264Y-12936220D02*
G75*
G03*
X11960860Y-12941300I-104264J7D01*
G01*
X11960860Y-12941300D02*
X11963275Y-13997847D01*
X9912340Y-5105400D02*
X19912340Y-5105400D01*
X19912340Y-5105400D02*
X19912340Y-15105400D01*
X19912340Y-15105400D02*
X9912340Y-15105400D01*
X9912340Y-15105400D02*
X9912340Y-5105400D01*
X11963275Y-13997847D02*
G75*
G03*
X12171679Y-13992767I104264J-7D01*
G01*
X12169264Y-12933680D02*
X12171679Y-13995400D01*
D11*
D12*
X11537760Y-5754420D02*
X11602760Y-5819420D01*
X11602760Y-5754420D02*
X11537760Y-5819420D01*
X12115760Y-5754420D02*
X12180760Y-5819420D01*
X12180760Y-5754420D02*
X12115760Y-5819420D01*
X16874300Y-5751880D02*
X16939300Y-5816880D01*
X16939300Y-5751880D02*
X16874300Y-5816880D01*
X17452300Y-5751880D02*
X17517300Y-5816880D01*
X17517300Y-5751880D02*
X17452300Y-5816880D01*
D11*
X10159959Y-15425876D02*
X10159959Y-15225876D01*
X10207578Y-15225876D01*
X10236150Y-15235400D01*
X10255197Y-15254448D01*
X10264721Y-15273495D01*
X10274245Y-15311590D01*
X10274245Y-15340162D01*
X10264721Y-15378257D01*
X10255197Y-15397305D01*
X10236150Y-15416352D01*
X10207578Y-15425876D01*
X10159959Y-15425876D01*
X10359959Y-15425876D02*
X10359959Y-15292543D01*
X10359959Y-15330638D02*
X10369483Y-15311590D01*
X10379007Y-15302067D01*
X10398054Y-15292543D01*
X10417102Y-15292543D01*
X10483769Y-15425876D02*
X10483769Y-15292543D01*
X10483769Y-15225876D02*
X10474245Y-15235400D01*
X10483769Y-15244924D01*
X10493292Y-15235400D01*
X10483769Y-15225876D01*
X10483769Y-15244924D01*
X10607578Y-15425876D02*
X10588530Y-15416352D01*
X10579007Y-15397305D01*
X10579007Y-15225876D01*
X10712340Y-15425876D02*
X10693292Y-15416352D01*
X10683769Y-15397305D01*
X10683769Y-15225876D01*
X10940911Y-15425876D02*
X10940911Y-15225876D01*
X11007578Y-15368733D01*
X11074245Y-15225876D01*
X11074245Y-15425876D01*
X11255197Y-15425876D02*
X11255197Y-15321114D01*
X11245673Y-15302067D01*
X11226626Y-15292543D01*
X11188530Y-15292543D01*
X11169483Y-15302067D01*
X11255197Y-15416352D02*
X11236149Y-15425876D01*
X11188530Y-15425876D01*
X11169483Y-15416352D01*
X11159959Y-15397305D01*
X11159959Y-15378257D01*
X11169483Y-15359209D01*
X11188530Y-15349686D01*
X11236149Y-15349686D01*
X11255197Y-15340162D01*
X11350435Y-15292543D02*
X11350435Y-15492543D01*
X11350435Y-15302067D02*
X11369483Y-15292543D01*
X11407578Y-15292543D01*
X11426626Y-15302067D01*
X11436149Y-15311590D01*
X11445673Y-15330638D01*
X11445673Y-15387781D01*
X11436149Y-15406828D01*
X11426626Y-15416352D01*
X11407578Y-15425876D01*
X11369483Y-15425876D01*
X11350435Y-15416352D01*
X11531388Y-15406828D02*
X11540911Y-15416352D01*
X11531388Y-15425876D01*
X11521864Y-15416352D01*
X11531388Y-15406828D01*
X11531388Y-15425876D01*
X11531388Y-15302067D02*
X11540911Y-15311590D01*
X11531388Y-15321114D01*
X11521864Y-15311590D01*
X11531388Y-15302067D01*
X11531388Y-15321114D01*
D12*
X9837340Y-15722900D02*
X9902340Y-15787900D01*
X9902340Y-15722900D02*
X9837340Y-15787900D01*
D11*
X10198054Y-15645876D02*
X10217102Y-15645876D01*
X10236150Y-15655400D01*
X10245673Y-15664924D01*
X10255197Y-15683971D01*
X10264721Y-15722067D01*
X10264721Y-15769686D01*
X10255197Y-15807781D01*
X10245673Y-15826828D01*
X10236150Y-15836352D01*
X10217102Y-15845876D01*
X10198054Y-15845876D01*
X10179007Y-15836352D01*
X10169483Y-15826828D01*
X10159959Y-15807781D01*
X10150435Y-15769686D01*
X10150435Y-15722067D01*
X10159959Y-15683971D01*
X10169483Y-15664924D01*
X10179007Y-15655400D01*
X10198054Y-15645876D01*
X10350435Y-15826828D02*
X10359959Y-15836352D01*
X10350435Y-15845876D01*
X10340911Y-15836352D01*
X10350435Y-15826828D01*
X10350435Y-15845876D01*
X10531388Y-15645876D02*
X10493292Y-15645876D01*
X10474245Y-15655400D01*
X10464721Y-15664924D01*
X10445673Y-15693495D01*
X10436150Y-15731590D01*
X10436150Y-15807781D01*
X10445673Y-15826828D01*
X10455197Y-15836352D01*
X10474245Y-15845876D01*
X10512340Y-15845876D01*
X10531388Y-15836352D01*
X10540911Y-15826828D01*
X10550435Y-15807781D01*
X10550435Y-15760162D01*
X10540911Y-15741114D01*
X10531388Y-15731590D01*
X10512340Y-15722067D01*
X10474245Y-15722067D01*
X10455197Y-15731590D01*
X10445673Y-15741114D01*
X10436150Y-15760162D01*
X10731388Y-15645876D02*
X10636150Y-15645876D01*
X10626626Y-15741114D01*
X10636150Y-15731590D01*
X10655197Y-15722067D01*
X10702816Y-15722067D01*
X10721864Y-15731590D01*
X10731388Y-15741114D01*
X10740911Y-15760162D01*
X10740911Y-15807781D01*
X10731388Y-15826828D01*
X10721864Y-15836352D01*
X10702816Y-15845876D01*
X10655197Y-15845876D01*
X10636150Y-15836352D01*
X10626626Y-15826828D01*
X10864721Y-15645876D02*
X10883769Y-15645876D01*
X10902816Y-15655400D01*
X10912340Y-15664924D01*
X10921864Y-15683971D01*
X10931388Y-15722067D01*
X10931388Y-15769686D01*
X10921864Y-15807781D01*
X10912340Y-15826828D01*
X10902816Y-15836352D01*
X10883769Y-15845876D01*
X10864721Y-15845876D01*
X10845673Y-15836352D01*
X10836150Y-15826828D01*
X10826626Y-15807781D01*
X10817102Y-15769686D01*
X10817102Y-15722067D01*
X10826626Y-15683971D01*
X10836150Y-15664924D01*
X10845673Y-15655400D01*
X10864721Y-15645876D01*
X11017102Y-15845876D02*
X11017102Y-15712543D01*
X11017102Y-15731590D02*
X11026626Y-15722067D01*
X11045673Y-15712543D01*
X11074245Y-15712543D01*
X11093292Y-15722067D01*
X11102816Y-15741114D01*
X11102816Y-15845876D01*
X11102816Y-15741114D02*
X11112340Y-15722067D01*
X11131388Y-15712543D01*
X11159959Y-15712543D01*
X11179007Y-15722067D01*
X11188530Y-15741114D01*
X11188530Y-15845876D01*
X11283768Y-15845876D02*
X11283768Y-15712543D01*
X11283768Y-15731590D02*
X11293292Y-15722067D01*
X11312340Y-15712543D01*
X11340911Y-15712543D01*
X11359959Y-15722067D01*
X11369483Y-15741114D01*
X11369483Y-15845876D01*
X11369483Y-15741114D02*
X11379007Y-15722067D01*
X11398054Y-15712543D01*
X11426626Y-15712543D01*
X11445673Y-15722067D01*
X11455197Y-15741114D01*
X11455197Y-15845876D01*
X11845673Y-15636352D02*
X11674245Y-15893495D01*
X12102816Y-15645876D02*
X12121864Y-15645876D01*
X12140911Y-15655400D01*
X12150435Y-15664924D01*
X12159959Y-15683971D01*
X12169483Y-15722067D01*
X12169483Y-15769686D01*
X12159959Y-15807781D01*
X12150435Y-15826828D01*
X12140911Y-15836352D01*
X12121864Y-15845876D01*
X12102816Y-15845876D01*
X12083768Y-15836352D01*
X12074245Y-15826828D01*
X12064721Y-15807781D01*
X12055197Y-15769686D01*
X12055197Y-15722067D01*
X12064721Y-15683971D01*
X12074245Y-15664924D01*
X12083768Y-15655400D01*
X12102816Y-15645876D01*
X12255197Y-15826828D02*
X12264721Y-15836352D01*
X12255197Y-15845876D01*
X12245673Y-15836352D01*
X12255197Y-15826828D01*
X12255197Y-15845876D01*
X12388530Y-15645876D02*
X12407578Y-15645876D01*
X12426626Y-15655400D01*
X12436149Y-15664924D01*
X12445673Y-15683971D01*
X12455197Y-15722067D01*
X12455197Y-15769686D01*
X12445673Y-15807781D01*
X12436149Y-15826828D01*
X12426626Y-15836352D01*
X12407578Y-15845876D01*
X12388530Y-15845876D01*
X12369483Y-15836352D01*
X12359959Y-15826828D01*
X12350435Y-15807781D01*
X12340911Y-15769686D01*
X12340911Y-15722067D01*
X12350435Y-15683971D01*
X12359959Y-15664924D01*
X12369483Y-15655400D01*
X12388530Y-15645876D01*
X12531388Y-15664924D02*
X12540911Y-15655400D01*
X12559959Y-15645876D01*
X12607578Y-15645876D01*
X12626626Y-15655400D01*
X12636149Y-15664924D01*
X12645673Y-15683971D01*
X12645673Y-15703019D01*
X12636149Y-15731590D01*
X12521864Y-15845876D01*
X12645673Y-15845876D01*
X12826626Y-15645876D02*
X12731388Y-15645876D01*
X12721864Y-15741114D01*
X12731388Y-15731590D01*
X12750435Y-15722067D01*
X12798054Y-15722067D01*
X12817102Y-15731590D01*
X12826626Y-15741114D01*
X12836149Y-15760162D01*
X12836149Y-15807781D01*
X12826626Y-15826828D01*
X12817102Y-15836352D01*
X12798054Y-15845876D01*
X12750435Y-15845876D01*
X12731388Y-15836352D01*
X12721864Y-15826828D01*
X13007578Y-15645876D02*
X12969483Y-15645876D01*
X12950435Y-15655400D01*
X12940911Y-15664924D01*
X12921864Y-15693495D01*
X12912340Y-15731590D01*
X12912340Y-15807781D01*
X12921864Y-15826828D01*
X12931388Y-15836352D01*
X12950435Y-15845876D01*
X12988530Y-15845876D01*
X13007578Y-15836352D01*
X13017102Y-15826828D01*
X13026626Y-15807781D01*
X13026626Y-15760162D01*
X13017102Y-15741114D01*
X13007578Y-15731590D01*
X12988530Y-15722067D01*
X12950435Y-15722067D01*
X12931388Y-15731590D01*
X12921864Y-15741114D01*
X12912340Y-15760162D01*
X13102816Y-15645876D02*
X13102816Y-15683971D01*
X13179007Y-15645876D02*
X13179007Y-15683971D01*
X13474245Y-15922067D02*
X13464721Y-15912543D01*
X13445673Y-15883971D01*
X13436149Y-15864924D01*
X13426626Y-15836352D01*
X13417102Y-15788733D01*
X13417102Y-15750638D01*
X13426626Y-15703019D01*
X13436149Y-15674448D01*
X13445673Y-15655400D01*
X13464721Y-15626828D01*
X13474245Y-15617305D01*
X13636149Y-15712543D02*
X13636149Y-15845876D01*
X13588530Y-15636352D02*
X13540911Y-15779209D01*
X13664721Y-15779209D01*
X13893292Y-15845876D02*
X13893292Y-15645876D01*
X13979007Y-15845876D02*
X13979007Y-15741114D01*
X13969483Y-15722067D01*
X13950435Y-15712543D01*
X13921864Y-15712543D01*
X13902816Y-15722067D01*
X13893292Y-15731590D01*
X14102816Y-15845876D02*
X14083768Y-15836352D01*
X14074245Y-15826828D01*
X14064721Y-15807781D01*
X14064721Y-15750638D01*
X14074245Y-15731590D01*
X14083768Y-15722067D01*
X14102816Y-15712543D01*
X14131388Y-15712543D01*
X14150435Y-15722067D01*
X14159959Y-15731590D01*
X14169483Y-15750638D01*
X14169483Y-15807781D01*
X14159959Y-15826828D01*
X14150435Y-15836352D01*
X14131388Y-15845876D01*
X14102816Y-15845876D01*
X14283768Y-15845876D02*
X14264721Y-15836352D01*
X14255197Y-15817305D01*
X14255197Y-15645876D01*
X14436149Y-15836352D02*
X14417102Y-15845876D01*
X14379007Y-15845876D01*
X14359959Y-15836352D01*
X14350435Y-15817305D01*
X14350435Y-15741114D01*
X14359959Y-15722067D01*
X14379007Y-15712543D01*
X14417102Y-15712543D01*
X14436149Y-15722067D01*
X14445673Y-15741114D01*
X14445673Y-15760162D01*
X14350435Y-15779209D01*
X14521864Y-15836352D02*
X14540911Y-15845876D01*
X14579007Y-15845876D01*
X14598054Y-15836352D01*
X14607578Y-15817305D01*
X14607578Y-15807781D01*
X14598054Y-15788733D01*
X14579007Y-15779209D01*
X14550435Y-15779209D01*
X14531388Y-15769686D01*
X14521864Y-15750638D01*
X14521864Y-15741114D01*
X14531388Y-15722067D01*
X14550435Y-15712543D01*
X14579007Y-15712543D01*
X14598054Y-15722067D01*
X14674245Y-15922067D02*
X14683768Y-15912543D01*
X14702816Y-15883971D01*
X14712340Y-15864924D01*
X14721864Y-15836352D01*
X14731388Y-15788733D01*
X14731388Y-15750638D01*
X14721864Y-15703019D01*
X14712340Y-15674448D01*
X14702816Y-15655400D01*
X14683768Y-15626828D01*
X14674245Y-15617305D01*
X15036149Y-15922067D02*
X15026626Y-15912543D01*
X15007578Y-15883971D01*
X14998054Y-15864924D01*
X14988530Y-15836352D01*
X14979007Y-15788733D01*
X14979007Y-15750638D01*
X14988530Y-15703019D01*
X14998054Y-15674448D01*
X15007578Y-15655400D01*
X15026626Y-15626828D01*
X15036149Y-15617305D01*
X15112340Y-15712543D02*
X15112340Y-15845876D01*
X15112340Y-15731590D02*
X15121864Y-15722067D01*
X15140911Y-15712543D01*
X15169483Y-15712543D01*
X15188530Y-15722067D01*
X15198054Y-15741114D01*
X15198054Y-15845876D01*
X15321864Y-15845876D02*
X15302816Y-15836352D01*
X15293292Y-15826828D01*
X15283768Y-15807781D01*
X15283768Y-15750638D01*
X15293292Y-15731590D01*
X15302816Y-15722067D01*
X15321864Y-15712543D01*
X15350435Y-15712543D01*
X15369483Y-15722067D01*
X15379007Y-15731590D01*
X15388530Y-15750638D01*
X15388530Y-15807781D01*
X15379007Y-15826828D01*
X15369483Y-15836352D01*
X15350435Y-15845876D01*
X15321864Y-15845876D01*
X15445673Y-15712543D02*
X15521864Y-15712543D01*
X15474245Y-15645876D02*
X15474245Y-15817305D01*
X15483768Y-15836352D01*
X15502816Y-15845876D01*
X15521864Y-15845876D01*
X15740911Y-15712543D02*
X15740911Y-15912543D01*
X15740911Y-15722067D02*
X15759959Y-15712543D01*
X15798054Y-15712543D01*
X15817102Y-15722067D01*
X15826626Y-15731590D01*
X15836149Y-15750638D01*
X15836149Y-15807781D01*
X15826626Y-15826828D01*
X15817102Y-15836352D01*
X15798054Y-15845876D01*
X15759959Y-15845876D01*
X15740911Y-15836352D01*
X15950435Y-15845876D02*
X15931388Y-15836352D01*
X15921864Y-15817305D01*
X15921864Y-15645876D01*
X16112340Y-15845876D02*
X16112340Y-15741114D01*
X16102816Y-15722067D01*
X16083768Y-15712543D01*
X16045673Y-15712543D01*
X16026626Y-15722067D01*
X16112340Y-15836352D02*
X16093292Y-15845876D01*
X16045673Y-15845876D01*
X16026626Y-15836352D01*
X16017102Y-15817305D01*
X16017102Y-15798257D01*
X16026626Y-15779209D01*
X16045673Y-15769686D01*
X16093292Y-15769686D01*
X16112340Y-15760162D01*
X16179007Y-15712543D02*
X16255197Y-15712543D01*
X16207578Y-15645876D02*
X16207578Y-15817305D01*
X16217102Y-15836352D01*
X16236149Y-15845876D01*
X16255197Y-15845876D01*
X16398054Y-15836352D02*
X16379007Y-15845876D01*
X16340911Y-15845876D01*
X16321864Y-15836352D01*
X16312340Y-15817305D01*
X16312340Y-15741114D01*
X16321864Y-15722067D01*
X16340911Y-15712543D01*
X16379007Y-15712543D01*
X16398054Y-15722067D01*
X16407578Y-15741114D01*
X16407578Y-15760162D01*
X16312340Y-15779209D01*
X16579007Y-15845876D02*
X16579007Y-15645876D01*
X16579007Y-15836352D02*
X16559959Y-15845876D01*
X16521864Y-15845876D01*
X16502816Y-15836352D01*
X16493292Y-15826828D01*
X16483768Y-15807781D01*
X16483768Y-15750638D01*
X16493292Y-15731590D01*
X16502816Y-15722067D01*
X16521864Y-15712543D01*
X16559959Y-15712543D01*
X16579007Y-15722067D01*
X16655197Y-15922067D02*
X16664721Y-15912543D01*
X16683768Y-15883971D01*
X16693292Y-15864924D01*
X16702816Y-15836352D01*
X16712340Y-15788733D01*
X16712340Y-15750638D01*
X16702816Y-15703019D01*
X16693292Y-15674448D01*
X16683768Y-15655400D01*
X16664721Y-15626828D01*
X16655197Y-15617305D01*
M02*
