M48
; DRILL file {KiCad (6.0.0)} date Wed Aug 31 12:15:51 2022
; FORMAT={-:-/ absolute / metric / decimal}
; #@! TF.CreationDate,2022-08-31T12:15:51-03:00
; #@! TF.GenerationSoftware,Kicad,Pcbnew,(6.0.0)
; #@! TF.FileFunction,Plated,1,2,PTH
FMAT,2
METRIC
; #@! TA.AperFunction,Plated,PTH,ComponentDrill
T1C0.200
; #@! TA.AperFunction,Plated,PTH,ViaDrill
T2C0.400
; #@! TA.AperFunction,Plated,PTH,ComponentDrill
T3C0.600
; #@! TA.AperFunction,Plated,PTH,ComponentDrill
T4C0.800
; #@! TA.AperFunction,Plated,PTH,ComponentDrill
T5C0.950
; #@! TA.AperFunction,Plated,PTH,ComponentDrill
T6C1.000
; #@! TA.AperFunction,Plated,PTH,ComponentDrill
T7C1.400
; #@! TA.AperFunction,Plated,PTH,ViaDrill
T8C3.200
%
G90
G05
T1
X110.896Y-116.865
X110.896Y-118.948
X110.896Y-120.269
X110.896Y-121.336
X110.917Y-117.81
X111.781Y-116.886
X111.781Y-121.357
X111.802Y-117.831
X111.832Y-118.948
X111.832Y-120.248
X113.081Y-116.886
X113.081Y-121.357
X113.102Y-117.831
X113.132Y-118.948
X113.132Y-120.248
X114.381Y-116.886
X114.381Y-121.357
X114.402Y-117.831
X114.432Y-118.948
X114.432Y-120.248
X115.367Y-116.865
X115.367Y-121.336
X115.388Y-117.81
X115.418Y-120.269
X115.468Y-118.948
T2
X101.094Y-63.725
X102.085Y-63.751
X102.286Y-71.374
X103.276Y-71.399
X105.994Y-119.151
X106.248Y-117.653
X107.036Y-119.177
X107.264Y-116.611
X107.34Y-125.578
X108.28Y-53.645
X108.458Y-125.552
X108.509Y-119.964
X108.534Y-118.415
X109.271Y-53.67
X109.652Y-113.81
X110.185Y-125.247
X110.922Y-109.906
X110.922Y-113.81
X111.137Y-123.761
X111.658Y-114.91
X112.395Y-64.643
X114.071Y-110.693
X115.585Y-101.266
X116.575Y-101.291
X117.983Y-117.653
X118.085Y-120.65
X118.491Y-75.311
X119.202Y-117.678
X119.278Y-120.675
X119.482Y-75.336
X119.558Y-142.113
X119.685Y-69.952
X120.244Y-98.806
X120.955Y-125.654
X121.234Y-106.502
X121.564Y-78.994
X122.098Y-104.927
X122.187Y-125.717
X122.555Y-108.128
X122.682Y-111.125
X123.114Y-126.111
X123.215Y-116.561
X123.241Y-115.57
X123.673Y-69.748
X124.333Y-142.494
X125.298Y-75.768
X125.4Y-69.596
X125.451Y-128.041
X125.755Y-125.197
X126.238Y-143.104
X126.441Y-128.067
X126.746Y-125.222
X126.797Y-58.75
X126.996Y-82.711
X127.0Y-88.29
X127.229Y-143.129
X127.787Y-58.776
X127.986Y-82.736
X127.991Y-88.316
X128.422Y-55.956
X129.438Y-136.017
X130.581Y-78.994
X130.581Y-111.227
X130.581Y-115.291
X130.581Y-117.006
X130.734Y-119.304
X131.191Y-94.031
X131.369Y-123.165
X131.724Y-119.329
X131.801Y-114.3
X132.105Y-99.67
X132.359Y-123.19
X132.41Y-117.907
X132.474Y-128.181
X132.842Y-112.674
X133.096Y-99.695
X133.375Y-106.07
X134.468Y-144.958
X135.001Y-109.626
X135.28Y-60.706
X135.306Y-59.715
X135.357Y-128.067
X135.509Y-75.794
X135.712Y-71.857
X135.738Y-68.631
X135.763Y-115.646
X135.788Y-114.656
X135.865Y-133.782
X135.966Y-143.586
X135.992Y-109.652
X136.195Y-95.148
X136.347Y-128.092
X136.728Y-53.696
X136.728Y-85.039
X136.754Y-52.705
X136.83Y-74.371
X136.855Y-69.52
X136.855Y-133.807
X136.881Y-68.529
X137.033Y-99.289
X137.719Y-85.065
X137.719Y-117.78
X138.151Y-72.034
X139.014Y-139.624
X140.005Y-72.339
X140.589Y-53.619
X140.818Y-117.704
X141.021Y-127.203
X141.072Y-95.047
X141.072Y-133.274
X141.097Y-104.8
X141.326Y-99.289
X141.503Y-125.146
X141.58Y-53.645
X141.884Y-72.187
X141.935Y-85.446
X143.104Y-61.722
X143.18Y-64.719
X143.51Y-147.295
X144.094Y-61.747
X144.094Y-75.743
X144.17Y-64.745
X144.501Y-147.32
X146.126Y-148.539
X146.406Y-57.074
X147.786Y-106.055
X149.535Y-104.204
X149.631Y-53.619
X149.835Y-149.657
X150.597Y-62.713
X150.622Y-53.645
X150.622Y-61.646
X151.536Y-59.868
X151.562Y-58.877
X152.099Y-136.768
X152.603Y-79.146
X152.705Y-55.931
X153.097Y-101.208
X153.619Y-65.405
X154.305Y-88.773
X154.889Y-66.116
X156.21Y-146.787
X156.997Y-64.491
X157.023Y-66.116
X157.201Y-146.812
X157.277Y-79.045
X158.127Y-139.739
X158.754Y-116.804
X158.775Y-92.735
X159.059Y-122.239
X159.106Y-71.12
X159.745Y-116.829
X159.766Y-92.761
X160.049Y-122.265
X160.096Y-71.145
X160.223Y-60.833
X160.249Y-54.813
X161.214Y-60.858
X161.214Y-119.863
X161.239Y-54.839
X161.315Y-89.129
X162.306Y-89.154
X162.585Y-74.701
X163.758Y-122.468
X164.49Y-119.609
X164.643Y-116.281
X164.748Y-122.493
X164.795Y-78.537
X165.481Y-119.634
X165.633Y-116.307
X165.786Y-78.562
X168.97Y-105.826
X170.205Y-89.865
X171.196Y-89.891
X172.847Y-94.717
X173.838Y-94.742
X174.676Y-84.125
X174.828Y-66.954
X175.006Y-99.289
X175.666Y-84.15
X175.819Y-66.98
X175.92Y-122.555
X175.946Y-146.152
X175.95Y-137.276
X176.53Y-63.373
X176.936Y-146.177
X177.14Y-120.015
X177.521Y-63.398
X177.521Y-73.609
X177.546Y-74.625
X178.156Y-104.227
X178.308Y-87.833
X179.349Y-53.772
X179.451Y-93.574
X180.061Y-71.984
X180.34Y-53.797
X181.051Y-72.009
X183.998Y-74.498
X184.404Y-87.655
X185.242Y-66.751
X185.395Y-87.681
X185.42Y-95.428
X185.547Y-123.292
X185.547Y-127.533
X185.623Y-140.157
X186.614Y-140.183
X188.874Y-53.111
X189.713Y-111.125
X190.043Y-101.676
X190.703Y-111.15
X191.033Y-101.702
X191.541Y-53.162
X192.049Y-95.809
X192.532Y-53.188
X192.71Y-88.316
X193.04Y-122.352
X193.065Y-131.547
X193.7Y-88.341
X194.031Y-122.377
X194.056Y-131.572
X194.488Y-81.864
X195.047Y-96.088
X195.199Y-79.451
X195.377Y-87.935
X195.478Y-81.89
X195.504Y-144.297
X195.631Y-63.373
X196.494Y-144.323
X196.621Y-63.398
X197.307Y-98.577
T4
X142.732Y-101.001
X142.732Y-103.541
X142.732Y-106.081
X142.732Y-108.621
X142.732Y-111.161
X142.732Y-113.701
X142.732Y-116.241
X142.732Y-118.781
X142.732Y-121.321
X142.732Y-123.861
X142.732Y-126.401
X142.732Y-128.941
X142.732Y-131.481
X142.732Y-134.021
X142.732Y-136.561
X142.732Y-139.101
X142.887Y-142.356
X142.937Y-97.606
X145.427Y-142.356
X145.477Y-97.606
X147.967Y-142.356
X148.017Y-97.606
X150.507Y-142.356
X150.557Y-97.606
X153.047Y-142.356
X153.097Y-97.606
X155.587Y-142.356
X155.637Y-97.606
X158.127Y-142.356
X158.177Y-97.606
X160.667Y-142.356
X160.717Y-97.606
X163.207Y-142.356
X163.257Y-97.606
X165.747Y-142.356
X165.797Y-97.606
X168.287Y-142.356
X168.337Y-97.606
X170.827Y-142.356
X170.877Y-97.606
X173.367Y-142.356
X173.417Y-97.606
X175.907Y-142.356
X175.957Y-97.606
X178.447Y-142.356
X178.497Y-97.606
X180.987Y-142.356
X181.037Y-97.606
X181.132Y-101.251
X181.132Y-103.791
X181.132Y-106.331
X181.132Y-108.871
X181.132Y-111.411
X181.132Y-113.951
X181.132Y-116.491
X181.132Y-119.031
X181.132Y-121.571
X181.132Y-124.111
X181.132Y-126.651
X181.132Y-129.191
X181.132Y-131.731
X181.132Y-134.271
X181.132Y-136.811
X181.132Y-139.351
T5
X113.963Y-148.514
X116.463Y-148.514
X118.963Y-148.514
X121.463Y-148.514
X128.339Y-148.514
X130.839Y-148.514
X133.339Y-148.514
X135.839Y-148.514
X190.119Y-117.914
X190.119Y-120.414
X190.119Y-122.914
X190.119Y-125.414
X190.119Y-127.914
X190.119Y-130.414
X190.119Y-132.914
X190.119Y-135.414
T7
X109.975Y-131.343
X109.975Y-136.423
X110.236Y-92.329
X110.236Y-97.409
T8
X102.667Y-147.422
X103.073Y-54.864
X195.631Y-147.828
X196.266Y-54.407
T3
X114.273Y-54.519G85X114.273Y-53.919
G05
X114.273Y-58.949G85X114.273Y-57.849
G05
X122.913Y-54.519G85X122.913Y-53.919
G05
X122.913Y-58.949G85X122.913Y-57.849
G05
X167.638Y-54.494G85X167.638Y-53.894
G05
X167.638Y-58.924G85X167.638Y-57.824
G05
X176.278Y-54.494G85X176.278Y-53.894
G05
X176.278Y-58.924G85X176.278Y-57.824
G05
T6
X107.797Y-79.149G85X107.797Y-81.349
G05
X112.297Y-85.049G85X110.097Y-85.049
G05
X114.097Y-78.949G85X114.097Y-81.549
G05
T0
M30
