G04 #@! TF.GenerationSoftware,KiCad,Pcbnew,(6.0.0)*
G04 #@! TF.CreationDate,2022-08-31T12:15:39-03:00*
G04 #@! TF.ProjectId,PCBMestrado_v1,5043424d-6573-4747-9261-646f5f76312e,rev?*
G04 #@! TF.SameCoordinates,Original*
G04 #@! TF.FileFunction,Paste,Top*
G04 #@! TF.FilePolarity,Positive*
%FSLAX46Y46*%
G04 Gerber Fmt 4.6, Leading zero omitted, Abs format (unit mm)*
G04 Created by KiCad (PCBNEW (6.0.0)) date 2022-08-31 12:15:39*
%MOMM*%
%LPD*%
G01*
G04 APERTURE LIST*
G04 Aperture macros list*
%AMRoundRect*
0 Rectangle with rounded corners*
0 $1 Rounding radius*
0 $2 $3 $4 $5 $6 $7 $8 $9 X,Y pos of 4 corners*
0 Add a 4 corners polygon primitive as box body*
4,1,4,$2,$3,$4,$5,$6,$7,$8,$9,$2,$3,0*
0 Add four circle primitives for the rounded corners*
1,1,$1+$1,$2,$3*
1,1,$1+$1,$4,$5*
1,1,$1+$1,$6,$7*
1,1,$1+$1,$8,$9*
0 Add four rect primitives between the rounded corners*
20,1,$1+$1,$2,$3,$4,$5,0*
20,1,$1+$1,$4,$5,$6,$7,0*
20,1,$1+$1,$6,$7,$8,$9,0*
20,1,$1+$1,$8,$9,$2,$3,0*%
G04 Aperture macros list end*
%ADD10RoundRect,0.200000X-0.200000X-0.275000X0.200000X-0.275000X0.200000X0.275000X-0.200000X0.275000X0*%
%ADD11R,1.700000X1.000000*%
%ADD12RoundRect,0.225000X-0.225000X-0.250000X0.225000X-0.250000X0.225000X0.250000X-0.225000X0.250000X0*%
%ADD13RoundRect,0.200000X0.275000X-0.200000X0.275000X0.200000X-0.275000X0.200000X-0.275000X-0.200000X0*%
%ADD14RoundRect,0.150000X0.150000X-0.587500X0.150000X0.587500X-0.150000X0.587500X-0.150000X-0.587500X0*%
%ADD15RoundRect,0.250000X-0.420000X-0.420000X0.420000X-0.420000X0.420000X0.420000X-0.420000X0.420000X0*%
%ADD16RoundRect,0.225000X-0.225000X-0.225000X0.225000X-0.225000X0.225000X0.225000X-0.225000X0.225000X0*%
%ADD17RoundRect,0.120000X-0.180000X-0.120000X0.180000X-0.120000X0.180000X0.120000X-0.180000X0.120000X0*%
%ADD18RoundRect,0.120000X0.120000X-0.180000X0.120000X0.180000X-0.120000X0.180000X-0.120000X-0.180000X0*%
%ADD19RoundRect,0.225000X0.225000X-0.225000X0.225000X0.225000X-0.225000X0.225000X-0.225000X-0.225000X0*%
%ADD20RoundRect,0.120000X0.180000X0.120000X-0.180000X0.120000X-0.180000X-0.120000X0.180000X-0.120000X0*%
%ADD21RoundRect,0.225000X0.225000X0.225000X-0.225000X0.225000X-0.225000X-0.225000X0.225000X-0.225000X0*%
%ADD22RoundRect,0.120000X-0.120000X0.180000X-0.120000X-0.180000X0.120000X-0.180000X0.120000X0.180000X0*%
%ADD23R,0.600000X1.450000*%
%ADD24R,0.300000X1.450000*%
%ADD25RoundRect,0.225000X0.250000X-0.225000X0.250000X0.225000X-0.250000X0.225000X-0.250000X-0.225000X0*%
%ADD26R,1.500000X0.600000*%
%ADD27RoundRect,0.225000X0.225000X0.250000X-0.225000X0.250000X-0.225000X-0.250000X0.225000X-0.250000X0*%
%ADD28RoundRect,0.200000X0.200000X0.275000X-0.200000X0.275000X-0.200000X-0.275000X0.200000X-0.275000X0*%
%ADD29RoundRect,0.200000X-0.275000X0.200000X-0.275000X-0.200000X0.275000X-0.200000X0.275000X0.200000X0*%
%ADD30RoundRect,0.075000X-0.700000X-0.075000X0.700000X-0.075000X0.700000X0.075000X-0.700000X0.075000X0*%
%ADD31RoundRect,0.075000X-0.075000X-0.700000X0.075000X-0.700000X0.075000X0.700000X-0.075000X0.700000X0*%
%ADD32R,1.500000X2.200000*%
%ADD33RoundRect,0.225000X-0.250000X0.225000X-0.250000X-0.225000X0.250000X-0.225000X0.250000X0.225000X0*%
%ADD34RoundRect,0.218750X0.218750X0.256250X-0.218750X0.256250X-0.218750X-0.256250X0.218750X-0.256250X0*%
%ADD35RoundRect,0.150000X0.825000X0.150000X-0.825000X0.150000X-0.825000X-0.150000X0.825000X-0.150000X0*%
%ADD36RoundRect,0.218750X-0.218750X-0.256250X0.218750X-0.256250X0.218750X0.256250X-0.218750X0.256250X0*%
%ADD37RoundRect,0.250000X0.650000X-0.325000X0.650000X0.325000X-0.650000X0.325000X-0.650000X-0.325000X0*%
%ADD38R,0.900000X1.200000*%
%ADD39RoundRect,0.250000X-0.325000X-0.650000X0.325000X-0.650000X0.325000X0.650000X-0.325000X0.650000X0*%
%ADD40R,1.200000X1.400000*%
%ADD41RoundRect,0.250000X0.325000X0.650000X-0.325000X0.650000X-0.325000X-0.650000X0.325000X-0.650000X0*%
%ADD42R,2.000000X1.500000*%
%ADD43R,2.000000X3.800000*%
%ADD44R,2.500000X1.800000*%
%ADD45RoundRect,0.075000X-0.662500X-0.075000X0.662500X-0.075000X0.662500X0.075000X-0.662500X0.075000X0*%
%ADD46RoundRect,0.075000X-0.075000X-0.662500X0.075000X-0.662500X0.075000X0.662500X-0.075000X0.662500X0*%
%ADD47RoundRect,0.250000X0.455000X-0.280000X0.455000X0.280000X-0.455000X0.280000X-0.455000X-0.280000X0*%
%ADD48RoundRect,0.150000X0.150000X-0.820000X0.150000X0.820000X-0.150000X0.820000X-0.150000X-0.820000X0*%
G04 APERTURE END LIST*
D10*
X124625600Y-104932480D03*
X126275600Y-104932480D03*
D11*
X164033600Y-81589800D03*
X157733600Y-81589800D03*
X164033600Y-85389800D03*
X157733600Y-85389800D03*
D12*
X132038500Y-60651200D03*
X133588500Y-60651200D03*
D13*
X169291000Y-65518800D03*
X169291000Y-63868800D03*
D14*
X107076200Y-61414900D03*
X108976200Y-61414900D03*
X108026200Y-59539900D03*
D15*
X112356600Y-118173200D03*
X113906600Y-119723200D03*
X112356600Y-119723200D03*
X113906600Y-118173200D03*
D16*
X109956600Y-115948200D03*
D17*
X109806600Y-116905700D03*
X109806600Y-117653200D03*
X109806600Y-118400700D03*
X109806600Y-119148200D03*
X109806600Y-119895700D03*
X109806600Y-120643200D03*
X109806600Y-121390700D03*
D16*
X109956600Y-122348200D03*
D18*
X110914900Y-122504200D03*
X111662400Y-122504200D03*
X112409900Y-122504200D03*
X113157400Y-122504200D03*
X113904900Y-122504200D03*
X114652400Y-122504200D03*
X115399900Y-122504200D03*
D19*
X116357400Y-122351800D03*
D20*
X116431200Y-121390700D03*
X116431200Y-120643200D03*
X116431200Y-119895700D03*
X116431200Y-119148200D03*
X116431200Y-118400700D03*
X116431200Y-117653200D03*
X116431200Y-116905700D03*
D21*
X116281200Y-115951000D03*
D22*
X115399900Y-115798600D03*
X114652400Y-115798600D03*
X113904900Y-115798600D03*
X113157400Y-115798600D03*
X112409900Y-115798600D03*
X111662400Y-115798600D03*
X110914900Y-115798600D03*
D23*
X175208000Y-59288800D03*
X174408000Y-59288800D03*
D24*
X173208000Y-59288800D03*
X172208000Y-59288800D03*
X171708000Y-59288800D03*
X170708000Y-59288800D03*
D23*
X169508000Y-59288800D03*
X168708000Y-59288800D03*
X168708000Y-59288800D03*
X169508000Y-59288800D03*
D24*
X170208000Y-59288800D03*
X171208000Y-59288800D03*
X172708000Y-59288800D03*
X173708000Y-59288800D03*
D23*
X174408000Y-59288800D03*
X175208000Y-59288800D03*
D10*
X195567800Y-75107800D03*
X197217800Y-75107800D03*
D25*
X168075800Y-114354800D03*
X168075800Y-112804800D03*
D26*
X117049200Y-130225800D03*
X117049200Y-131495800D03*
X117049200Y-132765800D03*
X117049200Y-134035800D03*
X117049200Y-135305800D03*
X117049200Y-136575800D03*
X117049200Y-137845800D03*
X117049200Y-139115800D03*
X124149200Y-139115800D03*
X124149200Y-137845800D03*
X124149200Y-136575800D03*
X124149200Y-135305800D03*
X124149200Y-134035800D03*
X124149200Y-132765800D03*
X124149200Y-131495800D03*
X124149200Y-130225800D03*
D13*
X125323600Y-65239400D03*
X125323600Y-63589400D03*
D27*
X158411400Y-129986400D03*
X156861400Y-129986400D03*
D28*
X133641600Y-68757800D03*
X131991600Y-68757800D03*
D10*
X131991600Y-70358000D03*
X133641600Y-70358000D03*
D13*
X127000000Y-65264800D03*
X127000000Y-63614800D03*
D29*
X116205000Y-93637600D03*
X116205000Y-95287600D03*
D30*
X156457200Y-116355800D03*
X156457200Y-116855800D03*
X156457200Y-117355800D03*
X156457200Y-117855800D03*
X156457200Y-118355800D03*
X156457200Y-118855800D03*
X156457200Y-119355800D03*
X156457200Y-119855800D03*
X156457200Y-120355800D03*
X156457200Y-120855800D03*
X156457200Y-121355800D03*
X156457200Y-121855800D03*
X156457200Y-122355800D03*
X156457200Y-122855800D03*
X156457200Y-123355800D03*
X156457200Y-123855800D03*
D31*
X158382200Y-125780800D03*
X158882200Y-125780800D03*
X159382200Y-125780800D03*
X159882200Y-125780800D03*
X160382200Y-125780800D03*
X160882200Y-125780800D03*
X161382200Y-125780800D03*
X161882200Y-125780800D03*
X162382200Y-125780800D03*
X162882200Y-125780800D03*
X163382200Y-125780800D03*
X163882200Y-125780800D03*
X164382200Y-125780800D03*
X164882200Y-125780800D03*
X165382200Y-125780800D03*
X165882200Y-125780800D03*
D30*
X167807200Y-123855800D03*
X167807200Y-123355800D03*
X167807200Y-122855800D03*
X167807200Y-122355800D03*
X167807200Y-121855800D03*
X167807200Y-121355800D03*
X167807200Y-120855800D03*
X167807200Y-120355800D03*
X167807200Y-119855800D03*
X167807200Y-119355800D03*
X167807200Y-118855800D03*
X167807200Y-118355800D03*
X167807200Y-117855800D03*
X167807200Y-117355800D03*
X167807200Y-116855800D03*
X167807200Y-116355800D03*
D31*
X165882200Y-114430800D03*
X165382200Y-114430800D03*
X164882200Y-114430800D03*
X164382200Y-114430800D03*
X163882200Y-114430800D03*
X163382200Y-114430800D03*
X162882200Y-114430800D03*
X162382200Y-114430800D03*
X161882200Y-114430800D03*
X161382200Y-114430800D03*
X160882200Y-114430800D03*
X160382200Y-114430800D03*
X159882200Y-114430800D03*
X159382200Y-114430800D03*
X158882200Y-114430800D03*
X158382200Y-114430800D03*
D28*
X129806200Y-131216400D03*
X128156200Y-131216400D03*
D32*
X186487200Y-74650600D03*
X192887200Y-74650600D03*
D33*
X136906000Y-65620600D03*
X136906000Y-67170600D03*
D10*
X158306000Y-64490600D03*
X159956000Y-64490600D03*
D27*
X156277800Y-114898800D03*
X154727800Y-114898800D03*
D11*
X150571600Y-85389800D03*
X144271600Y-85389800D03*
X150571600Y-81589800D03*
X144271600Y-81589800D03*
D29*
X142928900Y-52646000D03*
X142928900Y-54296000D03*
D10*
X124625600Y-120578880D03*
X126275600Y-120578880D03*
X124625600Y-109626400D03*
X126275600Y-109626400D03*
X131813800Y-57175400D03*
X133463800Y-57175400D03*
D28*
X185762400Y-54737000D03*
X184112400Y-54737000D03*
D10*
X124625600Y-119014240D03*
X126275600Y-119014240D03*
D34*
X168681500Y-148056600D03*
X167106500Y-148056600D03*
X133375500Y-52959000D03*
X131800500Y-52959000D03*
D12*
X167199200Y-126633600D03*
X168749200Y-126633600D03*
D28*
X172236400Y-148056600D03*
X170586400Y-148056600D03*
D35*
X125207800Y-96570800D03*
X125207800Y-95300800D03*
X125207800Y-94030800D03*
X125207800Y-92760800D03*
X120257800Y-92760800D03*
X120257800Y-94030800D03*
X120257800Y-95300800D03*
X120257800Y-96570800D03*
D36*
X139191900Y-131495800D03*
X140766900Y-131495800D03*
D28*
X154393400Y-85369400D03*
X152743400Y-85369400D03*
X195300600Y-58648600D03*
X193650600Y-58648600D03*
D27*
X133639300Y-66975800D03*
X132089300Y-66975800D03*
D10*
X158306000Y-66141600D03*
X159956000Y-66141600D03*
D29*
X128016000Y-137554200D03*
X128016000Y-139204200D03*
D33*
X128041400Y-94056200D03*
X128041400Y-95606200D03*
D25*
X185420000Y-93764400D03*
X185420000Y-92214400D03*
D28*
X194982600Y-68986400D03*
X193332600Y-68986400D03*
D12*
X147891200Y-59309000D03*
X149441200Y-59309000D03*
X139661600Y-57175400D03*
X141211600Y-57175400D03*
D28*
X172236400Y-145546600D03*
X170586400Y-145546600D03*
D10*
X115684800Y-65430400D03*
X117334800Y-65430400D03*
D37*
X170565000Y-113275000D03*
X170565000Y-110325000D03*
D10*
X124625600Y-112755680D03*
X126275600Y-112755680D03*
X131813800Y-58826400D03*
X133463800Y-58826400D03*
D38*
X118083600Y-63195200D03*
X114783600Y-63195200D03*
D37*
X147370800Y-127281200D03*
X147370800Y-124331200D03*
D39*
X188847200Y-56565800D03*
X191797200Y-56565800D03*
D10*
X124625600Y-108061760D03*
X126275600Y-108061760D03*
X166484800Y-85471000D03*
X168134800Y-85471000D03*
D25*
X145135600Y-128232200D03*
X145135600Y-126682200D03*
D10*
X128435600Y-52933600D03*
X130085600Y-52933600D03*
D36*
X131800500Y-54711600D03*
X133375500Y-54711600D03*
D27*
X139261600Y-115492800D03*
X137711600Y-115492800D03*
D28*
X117360200Y-67157600D03*
X115710200Y-67157600D03*
D10*
X124625600Y-106497120D03*
X126275600Y-106497120D03*
D13*
X123621800Y-65264800D03*
X123621800Y-63614800D03*
X167614600Y-65493400D03*
X167614600Y-63843400D03*
D10*
X124625600Y-117449600D03*
X126275600Y-117449600D03*
D28*
X133616200Y-72009000D03*
X131966200Y-72009000D03*
D13*
X122021600Y-65277000D03*
X122021600Y-63627000D03*
D12*
X137559200Y-109142800D03*
X139109200Y-109142800D03*
D29*
X145875300Y-52671400D03*
X145875300Y-54321400D03*
D28*
X110629200Y-64211200D03*
X108979200Y-64211200D03*
D40*
X133663500Y-64875400D03*
X131963500Y-62675400D03*
X133663500Y-62675400D03*
X131963500Y-64875400D03*
D10*
X152756600Y-83718400D03*
X154406600Y-83718400D03*
D12*
X190169800Y-68986400D03*
X191719800Y-68986400D03*
D41*
X192762400Y-85115400D03*
X189812400Y-85115400D03*
D40*
X137546800Y-111149400D03*
X139246800Y-113349400D03*
X137546800Y-113349400D03*
X139246800Y-111149400D03*
D42*
X188645400Y-91578400D03*
D43*
X194945400Y-93878400D03*
D42*
X188645400Y-93878400D03*
X188645400Y-96178400D03*
D10*
X124625600Y-114320320D03*
X126275600Y-114320320D03*
D12*
X165472000Y-129173600D03*
X167022000Y-129173600D03*
D33*
X148005800Y-67830400D03*
X148005800Y-69380400D03*
D28*
X185762400Y-56565800D03*
X184112400Y-56565800D03*
D27*
X157649400Y-112358800D03*
X156099400Y-112358800D03*
D23*
X121842600Y-59314200D03*
X121042600Y-59314200D03*
D24*
X119842600Y-59314200D03*
X118842600Y-59314200D03*
X118342600Y-59314200D03*
X117342600Y-59314200D03*
D23*
X116142600Y-59314200D03*
X115342600Y-59314200D03*
X115342600Y-59314200D03*
X116142600Y-59314200D03*
D24*
X116842600Y-59314200D03*
X117842600Y-59314200D03*
X119342600Y-59314200D03*
X120342600Y-59314200D03*
D23*
X121042600Y-59314200D03*
X121842600Y-59314200D03*
D34*
X168706900Y-145546600D03*
X167131900Y-145546600D03*
D25*
X128193800Y-134302800D03*
X128193800Y-132752800D03*
D27*
X126225600Y-115884960D03*
X124675600Y-115884960D03*
D44*
X186544200Y-81483200D03*
X190544200Y-81483200D03*
D10*
X128384800Y-54711600D03*
X130034800Y-54711600D03*
D38*
X171095400Y-64363600D03*
X174395400Y-64363600D03*
D33*
X184581800Y-62674200D03*
X184581800Y-64224200D03*
D28*
X126275600Y-111191040D03*
X124625600Y-111191040D03*
D41*
X114047800Y-108407200D03*
X111097800Y-108407200D03*
D10*
X128156200Y-129641600D03*
X129806200Y-129641600D03*
D13*
X144424400Y-71487800D03*
X144424400Y-69837800D03*
D28*
X117385600Y-68808600D03*
X115735600Y-68808600D03*
D45*
X139474500Y-60623000D03*
X139474500Y-61123000D03*
X139474500Y-61623000D03*
X139474500Y-62123000D03*
X139474500Y-62623000D03*
X139474500Y-63123000D03*
X139474500Y-63623000D03*
X139474500Y-64123000D03*
X139474500Y-64623000D03*
X139474500Y-65123000D03*
X139474500Y-65623000D03*
X139474500Y-66123000D03*
D46*
X140887000Y-67535500D03*
X141387000Y-67535500D03*
X141887000Y-67535500D03*
X142387000Y-67535500D03*
X142887000Y-67535500D03*
X143387000Y-67535500D03*
X143887000Y-67535500D03*
X144387000Y-67535500D03*
X144887000Y-67535500D03*
X145387000Y-67535500D03*
X145887000Y-67535500D03*
X146387000Y-67535500D03*
D45*
X147799500Y-66123000D03*
X147799500Y-65623000D03*
X147799500Y-65123000D03*
X147799500Y-64623000D03*
X147799500Y-64123000D03*
X147799500Y-63623000D03*
X147799500Y-63123000D03*
X147799500Y-62623000D03*
X147799500Y-62123000D03*
X147799500Y-61623000D03*
X147799500Y-61123000D03*
X147799500Y-60623000D03*
D46*
X146387000Y-59210500D03*
X145887000Y-59210500D03*
X145387000Y-59210500D03*
X144887000Y-59210500D03*
X144387000Y-59210500D03*
X143887000Y-59210500D03*
X143387000Y-59210500D03*
X142887000Y-59210500D03*
X142387000Y-59210500D03*
X141887000Y-59210500D03*
X141387000Y-59210500D03*
X140887000Y-59210500D03*
D28*
X197192400Y-73304400D03*
X195542400Y-73304400D03*
D47*
X188634400Y-62895800D03*
X190384400Y-64205800D03*
X188634400Y-64205800D03*
X190384400Y-62895800D03*
D48*
X187604400Y-66030800D03*
X188874400Y-66030800D03*
X190144400Y-66030800D03*
X191414400Y-66030800D03*
X191414400Y-61070800D03*
X190144400Y-61070800D03*
X188874400Y-61070800D03*
X187604400Y-61070800D03*
M02*
